<?xml version="1.0" standalone="no"?>
<!DOCTYPE svg PUBLIC "-//W3C//DTD SVG 20010904//EN"
 "http://www.w3.org/TR/2001/REC-SVG-20010904/DTD/svg10.dtd">
<svg version="1.0" xmlns="http://www.w3.org/2000/svg"
 width="713.000000pt" height="713.000000pt" viewBox="0 0 713.000000 713.000000"
 preserveAspectRatio="xMidYMid meet">
<metadata>
Created by potrace 1.14, written by Peter Selinger 2001-2017
</metadata>
<g transform="translate(0.000000,713.000000) scale(0.100000,-0.100000)"
fill="#000000" stroke="none">
<path d="M1897 5814 c-3 -3 -32 -7 -64 -8 -32 -1 -64 -5 -70 -9 -7 -5 -17 -6
-22 -2 -5 3 -12 1 -15 -4 -3 -5 -18 -12 -32 -15 -32 -8 -110 -60 -143 -96 -25
-27 -81 -105 -81 -114 0 -2 -5 -17 -12 -33 -6 -15 -14 -39 -17 -53 -8 -34 -8
-3857 0 -3896 4 -17 12 -41 18 -53 7 -11 9 -21 6 -21 -9 0 46 -82 79 -118 42
-46 100 -84 171 -112 l60 -24 1915 0 c1053 0 1931 3 1950 6 47 7 129 50 162
85 37 40 59 99 59 163 1 69 -3 85 -35 146 -22 43 -121 201 -143 229 -4 6 -14
22 -22 38 -8 15 -18 27 -23 27 -4 0 -8 4 -8 10 0 8 -79 135 -149 240 -65 97
-131 202 -131 209 0 5 -3 11 -7 13 -11 4 -83 116 -83 127 0 5 -7 11 -15 15 -8
3 -15 10 -15 16 0 9 -77 132 -103 165 -10 12 -215 332 -231 360 -6 10 -16 25
-23 32 -6 7 -15 22 -18 33 -3 11 -11 20 -16 20 -5 0 -9 5 -9 10 0 6 -27 51
-60 100 -33 49 -60 93 -60 98 0 5 -9 17 -20 27 -11 10 -20 23 -20 28 0 6 -10
21 -21 33 l-22 23 44 73 c24 40 48 80 54 89 5 9 19 32 29 50 10 19 22 36 25
39 3 3 40 61 81 128 41 68 84 138 95 156 11 17 42 67 68 111 27 44 62 100 78
125 16 25 32 52 36 60 5 8 20 33 34 55 15 22 82 130 149 240 67 110 137 223
155 250 17 28 40 66 51 85 10 19 23 39 27 45 16 22 137 216 137 221 0 3 16 30
35 60 19 30 35 59 35 64 0 6 3 10 8 10 10 0 39 69 48 116 12 65 7 117 -16 166
-19 41 -79 109 -105 118 -5 2 -26 10 -45 18 -46 19 -257 31 -281 16 -4 -2 -10
0 -14 5 -3 6 -16 7 -28 3 -12 -4 -38 -6 -57 -4 -19 1 -55 2 -80 1 -25 -1 -51
-1 -57 0 -18 1 -31 2 -88 1 -127 -1 -149 -1 -156 -6 -4 -2 -10 0 -14 5 -3 6
-16 7 -28 3 -12 -4 -38 -6 -57 -4 -19 1 -55 2 -80 1 -25 -1 -51 -1 -57 0 -18
1 -31 2 -88 1 -127 -1 -149 -1 -156 -6 -4 -2 -10 0 -14 5 -3 6 -16 7 -28 3
-12 -4 -38 -6 -57 -4 -19 1 -55 2 -80 1 -25 -1 -51 -1 -57 0 -18 1 -31 2 -83
1 -25 0 -52 0 -60 0 -8 1 -100 1 -205 1 -104 0 -197 0 -205 0 -8 0 -80 0 -160
0 -80 0 -152 0 -160 0 -8 0 -80 0 -160 0 -80 0 -152 0 -160 0 -18 0 -299 0
-320 0 -8 0 -44 0 -80 0 -36 -1 -85 -1 -110 -2 -25 -1 -51 -1 -57 0 -18 1 -31
2 -88 1 -127 -1 -149 -1 -156 -6 -4 -2 -10 0 -14 5 -3 6 -16 7 -28 3 -12 -4
-38 -6 -57 -4 -49 3 -124 2 -129 -3 -2 -2 -11 0 -21 5 -10 5 -20 7 -23 4z"/>
</g>
</svg>
