<?xml version="1.0" encoding="utf-8"?>
<!-- Generator: Adobe Illustrator 24.1.0, SVG Export Plug-In . SVG Version: 6.00 Build 0)  -->
<svg version="1.1" id="Layer_1" xmlns="http://www.w3.org/2000/svg" xmlns:xlink="http://www.w3.org/1999/xlink" x="0px" y="0px"
	 viewBox="0 0 627 625" style="enable-background:new 0 0 627 625;" xml:space="preserve">
<style type="text/css">
	.st0{clip-path:url(#SVGID_2_);}
	.st1{fill:#C5FFCA;stroke:#1C1C1C;stroke-width:2;stroke-linecap:round;stroke-linejoin:round;stroke-miterlimit:10;}
	.st2{fill:#FFFFFF;stroke:#1C1C1C;stroke-width:2;stroke-miterlimit:10;}
	.st3{fill:none;stroke:#1C1C1C;stroke-width:2;stroke-linecap:round;stroke-linejoin:round;stroke-miterlimit:10;}
	.st4{fill:#C7E6FF;stroke:#1C1C1C;stroke-width:2;stroke-miterlimit:10;}
	.st5{fill:#1C1C1C;stroke:#1C1C1C;stroke-width:2;stroke-linecap:round;stroke-linejoin:round;stroke-miterlimit:10;}
	.st6{opacity:0.6;fill:#C8C8C8;enable-background:new    ;}
	.st7{fill:#F1927C;}
	.st8{fill:#F6B5A0;}
	.st9{fill:#2C4367;}
	.st10{fill:#102F4D;}
	.st11{fill:#C84947;}
	.st12{fill:#1C1C1C;}
	.st13{fill:none;stroke:#1C1C1C;stroke-width:2;stroke-linecap:round;stroke-miterlimit:10;}
	.st14{fill:#F5AD95;}
	.st15{fill:#68B3E3;}
	.st16{fill:#001521;}
	.st17{fill:#FFFFFF;}
</style>
<g>
	<g>
		<g>
			<g>
				<defs>
					<rect id="SVGID_1_" x="16.4" y="-26.1" width="558.7" height="653.8"/>
				</defs>
				<clipPath id="SVGID_2_">
					<use xlink:href="#SVGID_1_"  style="overflow:visible;"/>
				</clipPath>
				<g class="st0">
					<g>
						<path class="st1" d="M-776.9,553.7c-3.9-6.1-15.5-21.8-30.9-19.7c-16.8,2.3,18.6,13.4,29.5,19.8c-2.4,0-4.5-0.2-6-0.7
							c-7.3-2.6-19.7,2.4-23.7,4.1h69.1c-0.5-1.7-1.7-4.4-4.9-6.3c-1.1-0.7-3.4-0.8-6.4-0.6c4.1-4.8,7-20.3-4.5-16.3
							c-8.4,2.9-8.3,12.4-7.5,18c-1.8,0.3-3.6,0.6-5.4,0.8c-3.4-17.5-15.6-68.9-40.3-70.3c-25-1.4,21.2,53.3,36.6,70.8
							C-773.2,553.4-775.1,553.6-776.9,553.7z"/>
						<g>
							<g>
								<g>
									<path class="st2" d="M-217.6,413.7l-0.4,18.2l-2.9,126.6c0,0.8-0.7,1.4-1.5,1.4l0,0c-1.4,0-2.5-1.1-2.5-2.4l-4.7-119.8
										l-0.9-23.9h12.9L-217.6,413.7L-217.6,413.7z"/>
									<path class="st2" d="M-217.6,413.7l-0.4,18.2c-3.6,1.2-7.9,3-11.5,5.7l-0.9-23.9L-217.6,413.7L-217.6,413.7z"/>
								</g>
							</g>
						</g>
						<g>
							<path class="st2" d="M522-90.5l-1.1,20.8c-30.7,2.8-74.6,8.5-110.5,19.1l-3.1-40L522-90.5L522-90.5z"/>
						</g>
						<g>
							<path class="st2" d="M486.3-168.8V-95c0,1.4-0.4,2.7-1.1,3.9c-1.5,2.5-4.4,4.2-7.7,4.2H-555.7c-4.8,0-8.7-3.6-8.7-8.1v-73.9
								c0-4.4,3.9-8.1,8.7-8.1H477.5C482.4-176.9,486.3-173.3,486.3-168.8z"/>
						</g>
					</g>
				</g>
			</g>
		</g>
	</g>
</g>
<path class="st3" d="M55.8,596.6c0,0,202.2-128.8,549.3-84"/>
<g>
	<g>
		<path class="st4" d="M538.2,67.3c-18-2.1-21.2,6.1-38.5-9.9c-22-20.3-51.4-7.9-73,4.7c-8.7,5-17.4,9-27.4,10.2
			c-7.7,0.9-15.2,1-22.5,3.7c-0.6,0.2-5.8,3.6-10,6.6H571C563.6,77.2,550.3,68.7,538.2,67.3z"/>
	</g>
	<g>
		<path class="st4" d="M233.5,59.3c0,0,108.1,0,108.2,0c-0.3,0-1.7-2-2-2.2c-1.9-2-4-3.7-6.3-5.2c-6.3-4-13.9-4.3-20.3-8.3
			c-4.4-2.7-8.3-6.2-13-8.4c-7.3-3.4-15.8-3.2-23.5-0.9c-7.5,2.2-14.4,6.3-20.8,10.8c-5.2,3.7-10.4,8.8-16.9,9.9
			C234.3,55.8,233.5,59.3,233.5,59.3z"/>
	</g>
</g>
<g>
	<g>
		<path class="st2" d="M440.4,249.1c2.5,5.1,6.3,10.2,5.7,16.2c-0.6,6.4-2.9,10.3,2.7,15.3c4.4,3.9,8.8,6.9,9.8,13.1
			c2.4,15.1-19.6,30.1-26.3,42.3c-1.5,2.8-3.1,8.7-5.7,10.7c-2.6,1.9-6.4-0.1-8.7-1.7c-7.5-5-12.1-13.9-10.2-22.8
			c2.4-11.4,7.9-21.2,3.1-32.9c-3.6-8.8-13.7-13.6-16.2-22.9c-1.2-4.6-1-9.7,1.2-14c2.4-4.5,7-7.2,9.9-11.3c3.9-5.7,4-12.9,5.9-19.3
			c3.4-11.8,13.5-19.7,23.4-26c6.1-3.9,14.2-4.6,18.6,1.3c1.8,2.5,2.2,15.3,1.5,17.9l1-4.1c-0.5,9-10.7,11.1-17.6,12.2
			c-6.3,1-9.7,3.8-10.6,10.4"/>
		<path class="st5" d="M427.2,307.9c0,0,25.5,3.1,15.4,38.8l-26.3,67c0,0-34.2-5.1-42.1-25.5l28.6-62.8
			C402.8,325.3,409.6,310.4,427.2,307.9z"/>
		<polygon class="st2" points="477.1,296 529.4,315.3 500.6,444.3 431.6,444.3 427.5,307.8 452.6,296 		"/>
		<path class="st2" d="M449.5,297.6h31v-37h-31C449.5,260.6,452.8,289.7,449.5,297.6z"/>
		<path class="st6" d="M451.6,292.6c1.2-11.2-1.1-32-1.1-32h29.9v12C474.7,284.3,464.5,294.1,451.6,292.6z"/>
		<path class="st5" d="M487,298.8c7.4,2.7,19.7,8.2,27.2,10.9c4.6,1.7,9.6,2.9,14,5c5,2.3,5.7,8.3,4.4,13.4
			c-4.1,16.1-8.6,32.2-12.1,48.5c-2.4,11.2-4.6,22.4-6.2,33.7c-1.5,10.1-3.9,20.5-2.1,30.7c1.4,7.7-32.5,5.1-39.4,5.1
			c-21.6,0-29.1,1.7-43.1-5.4l-2.5-132.6l16.9-7.9C444.1,300,460.5,321.7,487,298.8z"/>
		<path class="st5" d="M423.5,309.6c-1.1,24.5-6.4,39.5-7.1,55.8c-0.3,6,1.1,11,3.2,16.5c5.4,14,7.7,31.3,8.7,38.1
			c4.5,31.5,9.5,30.8,26,27.3c9.8-2.1,11.8-39.2,13.6-48.2c2.7-13.9,0.5-30.7-10-41c-7.5-7.4-17.2-9.5-21.1-20.1
			c-2.9-7.8,10.2-18.8,1.7-22c-0.1,0.3-5.3-11.3-5.2-10.9"/>
		<path class="st2" d="M428.8,247.2c2.3,11.3,8.3,30.7,17.6,36.3c11.3,6.8,34.2-12.9,40.1-23.4c7.4-13.1,4.2-33.6-1.4-47.2
			c-6.4-15.4-24.1-22.5-39.6-15.1C430.1,205.4,425.8,232.4,428.8,247.2z"/>
		<path class="st7" d="M484.6,212.4c-1.3-2.9-3-5.5-5-7.7l2.1,37.8l2.6,14.1l2.1,4.2c0.3-0.4,0.5-0.9,0.8-1.3
			C494.2,246.2,490.5,225.8,484.6,212.4z"/>
		<g>
			<path class="st8" d="M494.2,230.8c4.9,4.1,3.3,17.6-5.5,22.7c-2.5-2.3-3-9.1-3.5-12.4c-0.6-3.2-0.9-6.4,0.8-9.3
				C486.6,231,490.6,227.8,494.2,230.8z"/>
			<g>
				<g>
					<g>
						<path class="st7" d="M486.5,240.5c0,0.2-0.1,0.3-0.1,0.5c0-0.1,0-0.2,0.1-0.3c-0.2,0.7-0.6,1.7-0.3,2.3
							c0.1,0.2,0.4,0.5,0.6,0.6c0.2,0.2,0.5,0.4,0.8,0.5c1,0.5,2.1,0.6,3.1,0.4c0.8-0.1,1.6-0.4,2.2-0.9c0.7-0.6,0.9-1.4,1.1-2.2
							c0.2-0.7,0.3-1.5,0.3-2.2c0-0.4,0.1-0.8,0-1.1c-0.1-1.2-1.5-1.8-2.5-1.9c0.4,0.2,0.8,0.3,1.3,0.5c-0.2-0.1-0.3-0.3-0.5-0.4
							c-0.9-0.5-2.1-0.3-2.9,0.2c-0.1,0-0.1,0.1-0.2,0.2c0.4-0.2,0.8-0.3,1.3-0.5c-0.6,0.1-1.2,0.3-1.7,0.7
							c-0.2,0.1-0.4,0.3-0.5,0.5c-0.1,0.3-0.2,0.7-0.2,0.9c0,0.4,0.1,0.9,0.1,1.3c0,0.9,0,1.8-0.2,2.7c0-0.1,0.1-0.2,0.1-0.4
							c-0.1,0.3-0.2,0.6-0.4,0.9c0.1-0.1,0.2-0.2,0.3-0.3c-0.1,0.1-0.1,0.1-0.2,0.2c0.1-0.1,0.3-0.2,0.4-0.3c0,0-0.1,0-0.1,0.1
							c-0.1,0,0.7-0.2,0.5-0.2c-0.2,0.1,0.8-0.1,0.5-0.1c-0.2,0,0.9,0,0.5,0c-0.3,0,0.9,0.1,0.6,0c-0.1,0-0.3-0.1,0.2,0
							s0.2,0.1,0.1,0c-0.3-0.1,0.6,0.3,0.3,0.1c-0.2-0.1-0.3-0.2-0.5-0.2c0.1,0.1,0.3,0.2,0.4,0.2c-0.1-0.1-0.2-0.1-0.3-0.2
							c0.1,0.1,0.2,0.2,0.2,0.3c-0.4-0.7-0.5-1.5-0.8-2.2c-0.1-0.3-0.6-0.5-0.8-0.5c-0.4-0.1-0.8-0.1-1.1-0.1
							C487.4,239.6,486.6,239.8,486.5,240.5L486.5,240.5z"/>
					</g>
				</g>
				<g>
					<g>
						<path class="st7" d="M490.9,237.4l0.1-0.1c0.1-0.1,0.1,0,0,0c0,0,0.1,0,0.1-0.1c0,0-0.3,0.1,0,0c0.1,0,0.2-0.1,0.3-0.1
							c0.3-0.1,0,0-0.1,0c0.2,0,0.5-0.1,0.7-0.2c0.2-0.1,0.1,0-0.3,0c-0.1,0-0.2,0-0.4,0c-0.3,0-0.6-0.1-0.9-0.1
							c-0.2-0.1-0.2-0.1-0.1,0s0.1,0-0.1-0.1l0.2,0.1c0,0,0.3,0.3,0.1,0.1c-0.1-0.1,0.1,0.1,0.1,0.1c0.2,0.3,0.4,0.7,0.5,1.1
							c0-0.1-0.1-0.2-0.1-0.3c0.3,1.1,0.4,2.2,0.1,3.3c0-0.1,0.1-0.2,0.1-0.3c-0.1,0.3-0.2,0.7-0.4,1c-0.1,0.4-0.1,0.7-0.2,1.1
							c0,0.3-0.1,0.6-0.1,0.9c-0.1,0.4,0.1,0.5,0.3,0.8c0.4,0.6,1.4,0.6,2,0.4c0.5-0.1,1-0.3,1.4-0.6c0.3-0.2,0.5-0.5,0.8-0.8
							s0.6-0.7,0.9-1c0.2-0.3,0.3-0.6,0.4-1c0.4-1.4,0.3-3.2-0.3-4.5c-0.8-1.7-2.9-2.4-4.6-2.4c-1,0-2.1,0.2-2.8,1
							c-0.4,0.4-0.7,0.8-0.6,1.4c0.1,0.5,0.8,0.7,1.3,0.7C489.8,238,490.5,237.9,490.9,237.4L490.9,237.4z"/>
					</g>
				</g>
			</g>
		</g>
		<path class="st2" d="M466.5,192.7c-0.9,1.1-1.5,2.4-1.8,3.7c-1.6,3-5.6,15.1-6.4,16.9c-2.2,5.1,2.2,8.2,6.1,10.6
			c1.2,0.8,2.5,1.6,3.7,2.3c3.7,2.4,7.2,5,9.6,8.7c1.6,2.5,3.9,9.6,7.9,9.2c-0.6-3.9-0.8-11.9,4.8-14c0.7-0.4,3.2-0.6,6.1,3.3
			C496.3,233.5,500.1,194.1,466.5,192.7"/>
		<path class="st5" d="M429.7,440.5c0,0,35.9,1.5,82.5,0.3c18.3,28,29.4,52.1,25.9,80.5c0,0-7.3,23-42.8,25.2l-71.7-11.2l-63.3,2.3
			c0,0-61.6-67.5-22.1-79.3l76.4,9.9L429.7,440.5z"/>
		<path class="st9" d="M466.2,546.6"/>
		<g>
			<g>
				<path class="st10" d="M425.6,454.9c3.2,0.6,6.4,0.6,9.6,0.2c0.2,0,1.2-0.1,0.3-0.1c-1.3,0,1-0.1,0.8,0c0.8-0.1,1.6-0.1,2.3-0.2
					c1.7-0.3,3.3-0.7,5-1.1c-1.1,0.1-2.2,0.3-3.3,0.4c2.8,0.1,5.5,0.2,8.3-0.1c1.1-0.1,2.2-0.2,3.3-0.3c0.6-0.1,1.2-0.1,1.8-0.1
					c0.1,0-1.6,0.1-0.8,0.1c0.4,0,0.8,0,1.1-0.1c2.3-0.1,4.7,0,7-0.1c2.2-0.1,4.4-0.2,6.6-0.3c2.2-0.1,4.4,0,6.6,0
					c0.4,0,2.2,0.1,0.8,0c-1.5-0.1,0.4,0.1,0.8,0.1c1.8,0.3,3.6,0.4,5.4,0.5c0.6,0,1.1,0,1.7,0.1c1.1,0-1.7-0.1-0.7,0
					c0.2,0,0.5,0,0.7,0.1c1.8,0.1,3.7,0.3,5.5,0.4c1.1,0.1,2.2,0.1,3.3,0.1c0.6,0,1.1,0,1.7,0c0.2,0,0.4,0,0.6,0c1,0-2.1-0.2-0.8,0
					c0.5,0.1,1,0.2,1.5,0.2c-1.9-0.2-1.2-0.3-0.7-0.1c0.4,0.1,0.7,0.2,1.1,0.3c2.2,0.7,4.3,0.9,6.6,0.9c1.1,0,2.1,0,3.2,0
					c-2,0.1-1.6-0.1-0.9-0.1c1.1,0.2-0.8-0.2-1.1-0.3c-0.9-0.3-0.3-0.1,0,0c1.3,0.6,2.6,0.9,4,1.1c2.6,0.4,5.8,0.1,8.1-1.3
					c1.6-1,2.3-2.8,0.6-4.2c-0.2-0.1-0.3-0.3-0.5-0.4c-1.6-1.4-4.1-1.7-6.1-1.7s-4.5,0.4-6.1,1.7c-0.2,0.1-0.3,0.3-0.5,0.4
					c4.7,0.3,9.3,0.6,14,0.9c-1-2.4-5-3.1-7.2-3.5c-1.9-0.4-3.8-0.4-5.7-0.4c-0.6,0-1.2,0-1.8,0c-1,0,2.2,0.3,0.8,0
					c0.1,0,1.9,0.4,0.6,0c-1.8-0.6-3.7-0.9-5.5-1.1s-3.5-0.3-5.3-0.3c-0.6,0-1.2,0-1.8,0c-0.4,0-0.8,0-1.2,0c-1.9-0.1,1,0.1,0.2,0
					c-2-0.2-4-0.3-6-0.4c-0.7,0-1.4-0.1-2.2-0.1c-1.4,0,0.6,0.1,0.7,0.1c-0.4,0-0.9-0.1-1.4-0.2c-6.6-1.1-13.5-0.3-20.1,0.3
					c-1.3,0.1,0.6,0,0.7,0c-0.4,0-0.8,0-1.2,0.1c-0.7,0-1.4,0-2.1,0.1c-2,0.1-4.1,0.2-6.1,0.4c-1.3,0.1-2.7,0.3-4,0.5
					c-0.6,0.1-1.2,0.2-1.8,0.3c-0.4,0.1-0.8,0.1-1.1,0.2c-0.2,0-0.5,0.1-0.7,0.1c1,0,1.2,0,0.7,0c-2,0.1-4.1,0-6.1,0.2
					c-1.1,0.2-2.2,0.5-3.3,0.8c-0.3,0.1-0.7,0.2-1,0.3c-0.2,0.1-0.4,0.1-0.6,0.1c-0.5,0.1-0.5,0.1,0,0c0.1,0,0.3-0.1,0.4-0.1
					c-0.7,0.1-0.5,0.1,0.6,0c-0.5,0-1.1,0.1-1.6,0.1c-1.7,0.3-2,0.4-0.9,0.2c-0.7,0.2-1.4,0.2-2.1,0.3c-0.3,0-0.6,0.1-0.8,0.1
					c-0.7,0.1-0.6,0,0.3,0c-0.5,0-1,0.1-1.6,0.1c-0.4,0-2.6,0.5-1.5,0.3c0.8-0.2-0.8,0.2-0.9,0.2c-1.1,0.2-3.6,0.7-3.6,2.3
					C422,454.2,424.5,454.7,425.6,454.9L425.6,454.9z"/>
			</g>
		</g>
		<g>
			<g>
				<path class="st11" d="M471.8,457.2c-1.5-0.6-1.9-1.7-3-2.6c-1.7-1.4-3.7-2.3-5.9-2.7c-5.4-1-11,0.5-16,2.6
					c-0.5,0.2-1.1,0.5-1.6,0.7c-0.2,0.1-1.3,0.5-1.3,0.6c0.8-0.3,0.9-0.3,0.4-0.1c-0.2,0.1-0.4,0.1-0.7,0.2
					c-0.4,0.1-0.9,0.2-1.3,0.3c1.9-0.6,0.7-0.1,0.1-0.1c-1.8,0.2,1.6,0,0.4,0c-0.8,0-2.1-0.3,0.5,0.1c-0.3-0.1-0.7-0.1-1-0.1
					c-0.7-0.1-1.7-0.6,0.5,0.1c-0.4-0.1-0.8-0.2-1.2-0.3c2,0.5,0.8,0.3,0.2,0c-1.3-0.7,0.7,0.6-0.1,0c-0.5-0.4-1.6-1-1.9-1.7
					c0.4,0.5,0.5,0.6,0.2,0.2c-0.3-0.5-0.7-0.9-1.1-1.2c-0.9-0.7-1.8-1.1-2.8-1.4c-0.6-0.2-0.5-0.2,0.3,0.1
					c-2.1-1.3-5.4-1.2-7.6-0.7c-1.7,0.3-4,1.1-4.3,3.1c0,0.1,0,0.2,0,0.3c0.1-0.3,0.2-0.6,0.3-0.9c-0.7,1-0.7,2.1,0,3.1
					c0.6,0.8,1.4,1.7,2.2,2.3c1.3,1.1,2.8,2,4.3,2.6c4.4,1.8,9.3,2.4,14,1.5c4-0.7,7.3-2.2,10.6-4.5c0.2-0.1,0.4-0.2,0.5-0.4
					c0,0,0.6-0.4,0.2-0.1c-0.3,0.2,0.5-0.3,0.7-0.4c0.7-0.4,1.4-0.7,2.1-1c-0.9,0.3,0,0,0.4-0.1l0.5-0.1c0,0-0.9,0.1-0.4,0.1
					c0.4,0,0.8-0.1,1.2-0.1c0.5-0.1-1.6-0.2-0.6,0c-0.1,0-0.2,0-0.2-0.1c-0.3-0.1-0.3-0.1-0.1,0c0,0,0.8,0.3,0.3,0.1
					c-0.3-0.1,0.6,0.3,0.7,0.4c0.9,0.4,1.8,0.8,2.7,1.2c1.9,0.7,3.9,1.2,6,1.2c0.7,0,1.8-0.1,2.2-0.7
					C472.7,458,472.4,457.4,471.8,457.2L471.8,457.2z"/>
			</g>
		</g>
		<g>
			<path class="st8" d="M400.3,447.8"/>
			<path class="st2" d="M400.3,447.8l-0.2,10c34.1,6.3,61.5,7.8,121.4-0.2c16-2.2,23.7-6.1,25.8-23.2c4.9-40.3-7.6-102.2-15.2-113.1
				c-0.7-2.7-18.8-16.2-25.2,6.9c0,0-1.8,38.8,7.2,88c0,0,4.6,10.1-7.5,10.1C506.5,426.3,452.4,442.8,400.3,447.8"/>
			<path class="st8" d="M404.7,446.9l-30.5-2.3l-26.1,8.2c0,0-5.1,2.3-2.3,4.9l54.3,0.1C400.1,457.9,407.7,456.4,404.7,446.9z"/>
		</g>
		<path class="st5" d="M523.3,313.5c0,0,17.5,0.6,28.3,41.4l5.8,51.5c0,0-40.4,14.8-53.7,7.2l-2.8-80.5
			C500.9,333.2,501.8,311.3,523.3,313.5z"/>
		<g>
			<path class="st12" d="M434.8,243.6c1.3-0.2,2.6,1.4,2.9,3.6c0.3,2.1-0.4,4-1.7,4.1c-1.3,0.2-2.6-1.4-2.9-3.6
				C432.8,245.6,433.6,243.7,434.8,243.6z"/>
			<path class="st12" d="M456.7,239.2c1.3-0.2,2.6,1.4,2.9,3.6c0.3,2.1-0.4,4-1.7,4.2c-1.3,0.2-2.6-1.4-2.9-3.6
				C454.7,241.2,455.4,239.4,456.7,239.2z"/>
			<g>
				<g>
					<path class="st12" d="M444,242.4c0.6,0.6,0.4,1.7,0.4,2.5c-0.1,1-0.2,2-0.6,2.9c-0.7,1.6-2.1,2.9-2.6,4.6
						c-0.7,2.7,2.5,4,4.6,4.4c1.4,0.3,2.8,0.5,4.2,0.5c0.2,0,1.3-0.2,0.9-0.6c-0.5-0.6-1.8-0.9-1.9,0.1c0.3-0.2,0.7-0.3,1-0.5
						c-1.1,0-2-0.1-3.2-0.3c-1.1-0.2-2.4-0.5-3.3-1.3c-0.9-0.7-1.2-1.8-0.8-2.8c0.7-1.6,1.9-2.9,2.5-4.7c0.3-0.9,0.4-1.9,0.3-2.9
						c0-0.9-0.1-1.8-0.9-2.3C444.4,242.1,443.7,242.2,444,242.4L444,242.4z"/>
				</g>
			</g>
			<path class="st13" d="M454.5,263.5c0,0-4.6,5.4-10.2,1.7"/>
			<g>
				<g>
					<path class="st12" d="M463.1,236.1c-2.4-1.5-5.2-2-8-1.4c-1.2,0.3-2.4,0.9-3.4,1.6c-0.5,0.3-1,0.7-1.4,1.1
						c-0.4,0.4-1.3,1-1,1.7c0.3,0.6,1.4,0.5,1.9,0.4c1.1-0.3,1.7-1.5,2.6-2.2c0.7-0.6,1.5-1.1,2.3-1.3c1.9-0.6,4-0.1,5.8,0.7
						c0.4,0.2,0.9,0.2,1.2,0C463.4,236.5,463.4,236.3,463.1,236.1L463.1,236.1z"/>
				</g>
			</g>
			<g>
				<g>
					<path class="st12" d="M429.7,242.1c1.3-1,3.1-1.8,4.7-1.8c0.7,0,1.4,0.1,2.1,0.4c1,0.3,1.9,1.1,3,1c0.3,0,1.1-0.1,1.2-0.5
						c0,0,0,0,0-0.1c0.1-0.3-0.1-0.5-0.4-0.7c-2-1.1-4.5-1.6-6.7-1.4c-2.1,0.2-4,1.1-5.5,2.7c-0.3,0.3,0,0.5,0.3,0.6
						C428.9,242.4,429.4,242.4,429.7,242.1L429.7,242.1z"/>
				</g>
			</g>
		</g>
		<g>
			<rect x="328.8" y="463.1" class="st2" width="131.3" height="6.3"/>
			<g>
				<g>
					<polygon class="st2" points="290.8,469.4 413,469.4 402.3,383.2 280.1,383.2 					"/>
					<polygon class="st2" points="417.4,469.4 413,469.4 402.3,383.2 406.7,383.2 					"/>
				</g>
			</g>
			<path class="st2" d="M336.8,424.2c0,5.4,4.4,9.8,9.8,9.8s9.8-4.4,9.8-9.8s-4.4-9.8-9.8-9.8C341.2,414.4,336.8,418.8,336.8,424.2z
				"/>
		</g>
		<g>
			<polygon class="st14" points="383.1,522.7 356.7,525 357.1,545.1 383.5,544.3 			"/>
			<path class="st2" d="M364.7,545.1c-11.4,3.1-43.8,0.5-55.6-4c-14.3-5.4-13.3-34,4.7-29.9c16.3,3.7,33.5,10.4,50.1,11.7
				C363.9,522.9,373.8,530.6,364.7,545.1z"/>
		</g>
		<path class="st5" d="M364.7,545.1c-4.1-8.4-1.8-25.9-1.8-25.9l14.2-7.5c17.5-13.6,38.3-22.5,55.5-36.6
			c13.3-10.9,26.3-29.1,45.6-27.2c13.1,1.3,22.1,11.1,29.6,21c12.5,16.4,30.2,29.8,30.2,52.4c0,19-25.2,33.3-38.8,31.2
			c-10.1-1.6-25.2-14.3-30.8-21.9l-15-18.5c0,0-6,19.4-63.9,31.6C389.6,543.7,372.3,547.4,364.7,545.1z"/>
		<g>
			<polygon class="st2" points="416.3,523.9 440.8,533.9 434.5,552.9 409.6,544.5 			"/>
			<path class="st2" d="M427.3,550.8c9.9,6.3,41.7,13.4,54.3,12.6c15.3-1,22.7-28.6,4.3-30c-16.7-1.2-35,0.1-51.3-3.5
				C434.6,529.8,422.9,534.2,427.3,550.8z"/>
		</g>
		<g>
			<g>
				<path class="st15" d="M325.7,481c0.9,0,3.2-0.3,3.2-1.6c0-1.3-2.4-1.6-3.2-1.6c-0.9,0-3.2,0.3-3.2,1.6
					C322.4,480.7,324.9,481,325.7,481L325.7,481z"/>
			</g>
		</g>
		<path class="st5" d="M303.4,448.9c-26.5,3.4-19.6,28-10.3,36.5c25,22.9,61,40.1,92.4,52.3c1.1,0.4,30.8,11.5,35.8,13.5
			c-6.2-14.9,7.6-25.4,7.6-25.4s-35.2-17-58.8-41.8C370.2,484.1,334.9,442.3,303.4,448.9z"/>
		<g>
			<rect x="328.8" y="463.1" class="st16" width="36.5" height="6.3"/>
			<g>
				<g>
					<polygon class="st2" points="365.2,383.2 365.2,469.4 290.8,469.4 280.1,383.2 					"/>
				</g>
			</g>
			<path class="st4" d="M336.8,424.2c0,5.4,4.4,9.8,9.8,9.8s9.8-4.4,9.8-9.8s-4.4-9.8-9.8-9.8C341.2,414.4,336.8,418.8,336.8,424.2z
				"/>
			<polyline class="st17" points="376.1,468.4 361.9,468.4 361.9,464.7 361.5,428.7 363.7,384.2 369.7,384.2 369.8,389.5 			"/>
		</g>
		<path class="st2" d="M469,232.2c2.8,9.4,8.8,16.6,9.4,26.8c0.7,13.1-6.1,21.1-10.6,32.5c-4.5,11.3-0.3,16.6,5,26.5
			c7,13.2-4.7,19.8-4.5,32.3c0.2,12.4,11.9,11.1,21,9.8c13.2-1.8,19.6-13.1,21.1-25.2c0.7-5.2,2.8-6.1,8.8-5.3
			c5.8,0.8,7.3,3.2,11.1-2.2c5.9-8.4,7.8-18.9,3.5-28.3c-4.3-9.6-13-15.4-11.6-26.8c1.3-10.6,0-16.2-9.4-22
			c-8.5-5.2-10.3-10.2-9.5-20.2c0.7-8.7-1.8-13.3-8.1-19.4c-3.7-3.6-12.1-9.8-17.4-6.7C470.7,208.2,466.8,224.9,469,232.2z"/>
		<path class="st2" d="M470.9,193.2c0,0-12.5-6.3-29.9-0.1l-1.9,0.6"/>
	</g>
	<polyline class="st17" points="468.4,192.9 471.8,194 468.2,195.6 465.3,194.3 	"/>
</g>
<g>
	<path class="st1" d="M62.2,247.1c0.1-0.1,0.2-0.3,0.3-0.4c7.3-8.7,4.6-21.9,0.8-32.6c-4.5-12.7-9.3-37.2-2.5-49.9
		c9.4-17.7,24.5-25.3,46.1-25.4c25.4-0.2,43,16.7,46,38.5c2.6,19.2-7.9,44.1,8.3,59.5c4,3.8,9.1,6.1,14,8.7
		c12.5,6.5,24.8,15.8,28.6,29.4c3.9,13.9-2.3,28.4-7.2,42.1c-8.6,24.1,1.9,37.8,4.3,60.9c2.2,21.5-5.5,42.4-22.7,55.9
		c-18,14.2-41.2,19.9-63.7,24.8c-12.5,2.7-25.4,5.2-37.8,2.3c-28.8-6.7-57-47.7-36.7-74.6c8.6-11.5,23.7-19.4,24.1-35.4
		c0.1-2.4-0.2-4.8-1.4-6.8c-1.4-2.5-3.9-4.1-6.4-5.5c-8.2-4.6-17.2-7.8-25.1-12.9c-31.5-20.2-11.1-55.3,15.3-68.8
		C52,253.9,58.1,251.7,62.2,247.1z"/>
	<g>
		<path class="st2" d="M161.9,398c-3,17.6-10,30.5-20.2,45.5c-4.5,6.6-4,13-4.4,21.6c-0.9,20.3-2.6,40.6-4.7,60.8
			c-1,9.5-2.2,19-3.4,28.6c-0.2,1.6-0.2,5.3-0.9,8.4c-11.7,3.3-23,7.7-33.5,13.5c-0.4,0.1-0.7,0.3-1.1,0.4c0-3.7,0.8-10.1,0.9-10.7
			c3.7-23.1,9.7-46.2,13.5-69.4c3.9-23.7,5.1-47.9,5.1-71.9c0-10.6-0.3-21.2-0.8-31.8c-11.4-11.6-21-24.9-29.4-39.3
			c-3.4-5.9,3.3-7.1,6.7-1.3c5.8,10.1,15,20.2,22.4,28.9c-0.6-8.5-1.9-21.6-2.3-30.1c-0.2-3.5-0.4-7-0.4-10.6
			c-9.8-8.2-18.2-18.8-22.4-31.2c-2.2-6.5,5.9-5.9,8,0.6c2.7,7.8,8.8,13.8,15.3,17.5c0.2-1.5,0.5-2.9,0.9-4.3
			c1.7-4.7,8.5-8.6,10-2.2c4.9,21.2,6.9,53.1,10.5,75.9c5.4-12.1,12.8-36,12.9-50.5c0-6.8,8.8-8.6,8.8-1.8
			c-0.1,22.2-8.3,47.8-17.6,67.9c0.1,6.7,1,13.6,1.5,20c7.9-8.4,16.2-26,18.3-38.4C156.8,387.5,163,391.3,161.9,398z"/>
	</g>
</g>
<path class="st1" d="M614.1,509.3c-1,2.9-3.1,5.2-5.4,7.2c-0.4,0.4-0.8,0.7-1.3,0.9s-1.1,0.1-1.6,0.1h-0.1c-18.6-7-38-8.8-58.4-10.9
	h-0.1c0-0.2-0.1-0.5-0.1-0.7c-0.2-0.8-0.7-1.6-1-2.4c-1.1-3.2,1.2-6.8,4.2-8.4s6.6-1.6,10-1.7c0.4,0,0.9,0,1.3-0.3
	c0.4-0.3,0.5-1,0.6-1.5c0.5-3.3,1.7-6.7,4.2-9c2.1-1.9,4.9-2.9,7.7-3.3c5.4-0.9,11,0.1,15.7,2.7c3,1.6,6.4,4.8,6.1,8.6
	c0,0.2,6.2,1.8,6.8,2c1.3,0.4,2.5,0.8,3.8,1.4c2.4,1.1,4.6,2.5,6.2,4.6C614.7,501.7,615.3,505.8,614.1,509.3z"/>
<path class="st17" d="M427.4,225.4l3.9,1.5l9.4-0.7l7.6-3.9l13.4-9.5c0,0,3,12.1,7.7,13.3c4.6,1.2,20-17.4,20-17.4s0.6-2.6-2-5.3
	s-19.3-12.5-30.9-12s-19.5,4.3-19.5,4.3l-12,21.7"/>
<path class="st2" d="M458.1,215.2c0,0-16.7,15.2-28.6,11.2c0,0-2.3,2-1.6,13.3"/>
<path class="st17" d="M427.3,228c0,0,1.6-3.1,2.6-3.3s-2.2-1.2-2.2-1.2l-1.8,4.9"/>
<path class="st17" d="M456.9,214.9c0,0,1.2,0,1.8,2.2c0.6,2.3,2.7-0.7,2.7-0.7l-3.4-2.6l-3.2-0.4"/>
<polyline class="st12" points="467.9,193.1 471.3,194.3 472.4,193.9 471.7,193.3 465.6,191.4 "/>
</svg>
