<?xml version="1.0" encoding="utf-8"?>
<!-- Generator: Adobe Illustrator 24.1.0, SVG Export Plug-In . SVG Version: 6.00 Build 0)  -->
<svg version="1.1" id="Layer_1" xmlns="http://www.w3.org/2000/svg" xmlns:xlink="http://www.w3.org/1999/xlink" x="0px" y="0px"
	 viewBox="0 0 627 625" style="enable-background:new 0 0 627 625;" xml:space="preserve">
<style type="text/css">
	.st0{fill:#FFFFFF;}
	.st1{opacity:0.6;fill:#C8C8C8;enable-background:new    ;}
	.st2{fill:none;stroke:#1C1C1C;stroke-width:2;stroke-linecap:round;stroke-linejoin:round;stroke-miterlimit:10;}
	.st3{fill:#FFFFFF;stroke:#1C1C1C;stroke-width:2;stroke-linecap:round;stroke-linejoin:round;stroke-miterlimit:10;}
	.st4{fill:#C7E6FF;}
	.st5{fill:#1C1C1C;stroke:#1C1C1C;stroke-width:2;stroke-linecap:round;stroke-linejoin:round;stroke-miterlimit:10;}
	.st6{fill:#1C1C1C;}
	
		.st7{opacity:0.6;fill:#C8C8C8;stroke:#1C1C1C;stroke-width:2;stroke-linecap:round;stroke-linejoin:round;stroke-miterlimit:10;enable-background:new    ;}
	.st8{fill:#FFBCBC;stroke:#1C1C1C;stroke-width:2;stroke-miterlimit:10;}
	.st9{fill:#FFFDBB;stroke:#1C1C1C;stroke-width:2;stroke-linejoin:round;stroke-miterlimit:10;}
	.st10{fill:none;stroke:#1C1C1C;stroke-width:2;stroke-linejoin:round;stroke-miterlimit:10;}
	.st11{fill:#1C1C1C;stroke:#1C1C1C;stroke-width:2;stroke-linejoin:round;stroke-miterlimit:10;}
	.st12{fill:#C5FFCA;stroke:#1C1C1C;stroke-width:2;stroke-linecap:round;stroke-linejoin:round;stroke-miterlimit:10;}
</style>
<g>
	<g>
		<g>
			<path class="st0" d="M453.1,289.1c-46.2-8.5-79.3,6.2-105.1,28.7c-25.8,22.5-34,57.9-112.5,73.9c-78.5,16-105.3,53.4-110.8,100.7
				c-5.5,47.3,31.7,116.4,118.8,116.4s140.9,0,172.5,0s102.9-7.3,133.5-77.1C580,461.9,584,313.2,453.1,289.1z"/>
			<path class="st1" d="M488.4,325.3c-8.1-13.1-12.8-17.8-31.5-22.2c-18.7-4.4-87.8,18.7-104.7,28.9c-16.8,10.2-41.7,45.1-71.2,63.3
				s-101.8,31.1-113.4,112.1c-8.5,59.9,25,88.2,59.5,100.5c5.2,0.5,10.6,0.8,16.2,0.8c32,0,59.5,0,83.1,0
				c8.9-26.3,34.5-70.7,88.9-117.4C490.5,427,496.5,338.4,488.4,325.3z"/>
			<path class="st2" d="M453.1,289.1c-46.2-8.5-79.3,6.2-105.1,28.7c-25.8,22.5-34,57.9-112.5,73.9c-78.5,16-105.3,53.4-110.8,100.7
				c-5.5,47.3,31.7,116.4,118.8,116.4s140.9,0,172.5,0s102.9-7.3,133.5-77.1C580,461.9,584,313.2,453.1,289.1z"/>
		</g>
		<g>
			<g>
				<path class="st3" d="M122.4,518.9l-34.5,45l3.9,16.1l16.8,7.9c0,0,1.9-6.7,6.6-12.7c4.6-6,29.7-37.1,29.7-37.1L122.4,518.9z"/>
				<g>
					<g id="XMLID_245_">
						<g>
							<polygon class="st0" points="100.5,613.1 94.5,622 0.1,566.6 6.1,557.7 35.8,575.2 							"/>
							<path class="st4" d="M74.8,555.3c8.2-0.9,11.1-4,13.7-2.2c2.7,1.8,3.7,7.4-1.6,10.8c-1.5-1-3.4-1.6-6.2-2
								c-5.8-0.9-29.2-3.8-34.5-4.3c-5.2-0.5-6.2,3.1-6.2,3.1c0-3-0.5-5.1-0.8-6c0,0,1.4-2.6,6-1.8
								C49.8,553.7,66.6,556.2,74.8,555.3z"/>
							<path class="st4" d="M46.2,557.7c5.2,0.5,28.7,3.4,34.5,4.3c2.8,0.4,4.7,1,6.2,2c1.7,1,2.9,2.5,4.2,4.8
								c2.6,4.4,6.5,9,11.4,11.7c5,2.8,7.6,2.1,7.9,6.5c0.3,4.3-2.6,17-10,26.2l-64.7-37.9c3.3-5.8,4.2-10.7,4.2-14.4
								C40.1,560.8,41,557.2,46.2,557.7z"/>
							<path class="st0" d="M39.3,554.8c0.3,0.9,0.8,3,0.8,6c-0.1,3.6-1,8.6-4.2,14.4L6.1,557.7c0,0,7.7-13,33-3.5
								C39.1,554.2,39.1,554.4,39.3,554.8z"/>
						</g>
						<g>
							<polygon class="st2" points="100.5,613.1 35.8,575.2 6.1,557.7 0.1,566.6 94.5,622 							"/>
							<path class="st2" d="M6.1,557.7c0,0,7.7-13,33-3.5c0,0,0.1,0.2,0.2,0.5c0.3,0.9,0.8,3,0.8,6c-0.1,3.6-1,8.6-4.2,14.4"/>
							<path class="st2" d="M40.1,560.8c0,0,0.9-3.5,6.2-3.1c5.2,0.5,28.7,3.4,34.5,4.3c2.8,0.4,4.7,1,6.2,2c1.7,1,2.9,2.5,4.2,4.8
								c2.6,4.4,6.5,9,11.4,11.7c5,2.8,7.6,2.1,7.9,6.5c0.3,4.3-2.6,17-10,26.2"/>
							<path class="st2" d="M39.3,554.8c0,0,1.4-2.6,6-1.8c4.6,0.8,21.3,3.2,29.5,2.3c8.2-0.9,11.1-4,13.7-2.2
								c2.7,1.8,3.7,7.4-1.6,10.8"/>
						</g>
					</g>
					<g>
						<path class="st3" d="M51.9,563.1c0.1,1.2-0.8,2.3-2,2.4l0,0c-1.2,0.1-2.3-0.8-2.4-2l-1-11.2c-0.1-1.2,0.8-2.3,2-2.4l0,0
							c1.2-0.1,2.3,0.8,2.4,2L51.9,563.1z"/>
						<path class="st3" d="M61.1,564.8c0.1,1.2-0.8,2.3-2,2.4l0,0c-1.2,0.1-2.3-0.8-2.4-2L55.6,553c-0.1-1.2,0.8-2.3,2-2.4l0,0
							c1.2-0.1,2.3,0.8,2.4,2L61.1,564.8z"/>
						<path class="st3" d="M70.2,566.5c0.1,1.2-0.8,2.3-2,2.4l0,0c-1.2,0.1-2.3-0.8-2.4-2l-1.3-13.1c-0.1-1.2,0.8-2.3,2-2.4l0,0
							c1.2-0.1,2.3,0.8,2.4,2L70.2,566.5z"/>
						<path class="st3" d="M79.4,568.1c0.1,1.2-0.8,2.3-2,2.4l0,0c-1.2,0.1-2.3-0.8-2.4-2l-1.5-14.1c-0.1-1.2,0.8-2.3,2-2.4l0,0
							c1.2-0.1,2.3,0.8,2.4,2L79.4,568.1z"/>
					</g>
				</g>
				<g>
					<g>
						<path class="st0" d="M200.8,399l-83.5,123.5l32.6,28.9l73.7-92.4c0,0,45.1,19.6,55.8,19.6c10.7,0,48.7,0,53.8,0
							s25.7-3.4,33.4-24.7c3.9-10.8,9.9-37.8-24.2-54.9L200.8,399L200.8,399z"/>
						<path class="st1" d="M342.3,399H200.8l-30.1,44.6l38.5,33.5l14.4-18.1c0,0,45.1,19.6,55.7,19.6c10.7,0,48.7,0,53.8,0
							c5.1,0,25.7-3.4,33.4-24.7C370.4,443.1,376.4,416.1,342.3,399z"/>
						<path class="st2" d="M200.8,399l-83.5,123.5l32.6,28.9l73.7-92.4c0,0,45.1,19.6,55.8,19.6c10.7,0,48.7,0,53.8,0
							s25.7-3.4,33.4-24.7c3.9-10.8,9.9-37.8-24.2-54.9L200.8,399L200.8,399z"/>
					</g>
					<path class="st2" d="M223.5,459c0,0,6.6-19.8,0.2-35.6"/>
					<line class="st2" x1="124.7" y1="511.6" x2="157.5" y2="541.8"/>
				</g>
			</g>
			<path class="st5" d="M456,204.1c-3.5,25-5.1,32.6,2.7,45.2c7.8,12.5,16,31.6,1.6,44.9h-67.1v-92L456,204.1z"/>
			<path class="st5" d="M386.9,266.1c-4.4,3.9-19.3,10.8-22.6,12.9c-3.3,2.2-19.4,22.8-21.6,31.9c-2.2,9.1-0.1,27-1.8,38.9
				c-1.7,11.9-18.1,58.6-18.1,58.6l80.7,45.5c0,0,4.7-15.8,5.7-28.6s4.1-23.8,14.1-37.1c9.9-13.3,40.4-65,42.8-78.9
				c2.4-13.8,0.6-19.8-8.1-27.7c-5.5-5-22.7-13.5-22.7-13.5L386.9,266.1z"/>
			<g>
				<path class="st3" d="M169.2,518.9l-27.8,45l6.3,16.1l17.9,7.9c0,0,0.9-6.7,4.7-12.7c3.7-6,24.2-37.1,24.2-37.1L169.2,518.9z"/>
				<g id="XMLID_244_">
					<g>
						<polygon class="st0" points="157.6,613.1 151.6,622 57.2,566.6 63.2,557.7 92.9,575.2 						"/>
						<path class="st4" d="M131.9,555.3c8.2-0.9,11.1-4,13.7-2.2c2.7,1.8,3.7,7.4-1.6,10.8c-1.5-1-3.4-1.6-6.2-2
							c-5.8-0.9-29.2-3.8-34.5-4.3c-5.2-0.5-6.2,3.1-6.2,3.1c0-3-0.5-5.1-0.8-6c0,0,1.4-2.6,6-1.8
							C107,553.7,123.7,556.2,131.9,555.3z"/>
						<path class="st4" d="M103.3,557.7c5.2,0.5,28.7,3.4,34.5,4.3c2.8,0.4,4.7,1,6.2,2c1.7,1,2.9,2.5,4.2,4.8
							c2.6,4.4,6.5,9,11.4,11.7c5,2.8,7.6,2.1,7.9,6.5c0.3,4.3-2.6,17-10,26.2l-64.7-37.9c3.3-5.8,4.2-10.7,4.2-14.4
							C97.2,560.8,98.1,557.2,103.3,557.7z"/>
						<path class="st0" d="M96.4,554.8c0.3,0.9,0.8,3,0.8,6c-0.1,3.6-1,8.6-4.2,14.4l-29.8-17.5c0,0,7.7-13,33-3.5
							C96.2,554.2,96.2,554.4,96.4,554.8z"/>
					</g>
					<g>
						<polygon class="st2" points="157.6,613.1 92.9,575.2 63.2,557.7 57.2,566.6 151.6,622 						"/>
						<path class="st2" d="M63.2,557.7c0,0,7.7-13,33-3.5c0,0,0.1,0.2,0.2,0.5c0.3,0.9,0.8,3,0.8,6c-0.1,3.6-1,8.6-4.2,14.4"/>
						<path class="st2" d="M97.2,560.8c0,0,0.9-3.5,6.2-3.1s28.7,3.4,34.5,4.3c2.8,0.4,4.7,1,6.2,2c1.7,1,2.9,2.5,4.2,4.8
							c2.6,4.4,6.5,9,11.4,11.7c5,2.8,7.6,2.1,7.9,6.5c0.3,4.3-2.6,17-10,26.2"/>
						<path class="st2" d="M96.4,554.8c0,0,1.4-2.6,6-1.8c4.6,0.8,21.3,3.2,29.5,2.3c8.2-0.9,11.1-4,13.7-2.2
							c2.7,1.8,3.7,7.4-1.6,10.8"/>
					</g>
				</g>
				<g>
					<path class="st3" d="M109,563.1c0.1,1.2-0.8,2.3-2,2.4l0,0c-1.2,0.1-2.3-0.8-2.4-2l-1-11.2c-0.1-1.2,0.8-2.3,2-2.4l0,0
						c1.2-0.1,2.3,0.8,2.4,2L109,563.1z"/>
					<path class="st3" d="M118.2,564.8c0.1,1.2-0.8,2.3-2,2.4l0,0c-1.2,0.1-2.3-0.8-2.4-2l-1.2-12.2c-0.1-1.2,0.8-2.3,2-2.4l0,0
						c1.2-0.1,2.3,0.8,2.4,2L118.2,564.8z"/>
					<path class="st3" d="M127.3,566.5c0.1,1.2-0.8,2.3-2,2.4l0,0c-1.2,0.1-2.3-0.8-2.4-2l-1.3-13.1c-0.1-1.2,0.8-2.3,2-2.4l0,0
						c1.2-0.1,2.3,0.8,2.4,2L127.3,566.5z"/>
					<path class="st3" d="M136.5,568.1c0.1,1.2-0.8,2.3-2,2.4l0,0c-1.2,0.1-2.3-0.8-2.4-2l-1.5-14.1c-0.1-1.2,0.8-2.3,2-2.4l0,0
						c1.2-0.1,2.3,0.8,2.4,2L136.5,568.1z"/>
				</g>
			</g>
			<g>
				<path class="st3" d="M229.7,399l-65,123.5l36.9,28.9l59.9-92.4c0,0,48,19.6,58.7,19.6c10.7,0,48.7,0,53.8,0s25.2-3.4,29.7-24.7
					c2.3-10.8,4.2-37.8-32.4-54.9L229.7,399L229.7,399z"/>
				<path class="st2" d="M261.4,459c0,0,3.6-19.8-5.1-35.6"/>
				<line class="st2" x1="170.4" y1="511.6" x2="207.8" y2="541.8"/>
			</g>
			<g>
				<g>
					<path class="st0" d="M428.5,228.9c0,0-1.6,15-1,23.6c0.6,8.6,7.9,15.6,7.9,15.6s-11.6,19-38.3,14.1c-11.6-2.2-12.7-12.6-11-15
						s12-10.3,12-38.3L428.5,228.9L428.5,228.9z"/>
					<path class="st1" d="M427.4,247.5c0-8.4,1.1-18.6,1.1-18.6H398c0,28.1-10.3,35.9-12,38.3c-0.8,1.2-1,4.1,0.4,7.2
						C405.9,271.4,420.9,255.4,427.4,247.5z"/>
					<path class="st2" d="M428.5,228.9c0,0-1.6,15-1,23.6c0.6,8.6,7.9,15.6,7.9,15.6s-11.6,19-38.3,14.1c-11.6-2.2-12.7-12.6-11-15
						s12-10.3,12-38.3L428.5,228.9L428.5,228.9z"/>
				</g>
				<path class="st5" d="M379.5,160.6c-21.5,12.6-42.3,45-4,50.6h11.9v-50.6H379.5z"/>
				<path class="st3" d="M386.7,168.4c-14.2,9.3-17.3,22.7-17.3,36.9s0.1,14.6-0.6,21.9c-0.7,7.3,6.1,25.8,15.1,27.3
					c10.2,1.7,33-3.3,43-19c11.3-3.6,20.4-12.7,21.3-36.2C449.2,170.9,414.2,150.3,386.7,168.4z"/>
				<path class="st5" d="M378,161.6c-4.8,3.6,1.3,28.1,23.5,42.3C422,217,439.4,218,439.4,218s13.5,0.6,15.8-9
					c3.3-13.8,0.4-36.2-23-49C411.7,148.9,386.8,155.1,378,161.6z"/>
				<g>
					<path class="st0" d="M430.2,218.8c0,0,4.5-8,11.5-7.6c7.1,0.4,4.5,11.6,0,17.3c-4.5,5.6-11.9,7.4-15,7
						C426.8,235.5,426.7,227.2,430.2,218.8z"/>
					<path class="st2" d="M430.2,218.8c0,0,4.5-8,11.5-7.6c7.1,0.4,4.5,11.6,0,17.3c-4.5,5.6-11.9,7.4-15,7"/>
				</g>
				<path class="st6" d="M402.2,214.1c0,2.2-1.4,3.9-3.1,3.9c-1.7,0-3.1-1.8-3.1-3.9c0-2.2,1.4-3.9,3.1-3.9S402.2,211.9,402.2,214.1
					z"/>
				<path class="st6" d="M376.5,214.1c0,1.9-1.1,3.5-2.5,3.5s-2.5-1.6-2.5-3.5s1.1-3.5,2.5-3.5S376.5,212.1,376.5,214.1z"/>
				<path class="st2" d="M381.2,230.1c0,0-2.1-1.2-1-4.6"/>
				<path class="st2" d="M380.6,239.7c0,0,6.2,2,12.7-1.7"/>
				<path class="st2" d="M394.1,204.1c0,0,3.3-1.7,11,0"/>
				<path class="st2" d="M376.5,203.4c0,0-2-1.1-4.6-1.1"/>
			</g>
			<path class="st3" d="M368.7,249.6c0,0,9.4,0,11.9,0c2.5,0,4.8,0.7,6.6,2.4c1.8,1.8,6.2,5,7.3,5.9c1,0.9,2.8,1.7,2.5,2.5
				c-0.2,0.9-3,2.9-6.7,1.4s-5.4-2.9-6.7-3.3c-1.2-0.4-4.5-0.4-4.5-0.4s0,15,0,16.2c0,1.2-7.8,9.9-9.2,10.7c-1.4,0.8-5.6,0.3-6.6,0
				s-7.6-2.1-7.6-2.1s-13,44-15.6,53.4c-2.7,9.3-15.9,16.3-24,15.4c-8.1-0.9-9.2-14.7-8.2-21c1-6.3,37-62.5,38.9-64.7
				C348.6,263.9,367,249.6,368.7,249.6z"/>
			<g>
				<polygon class="st7" points="359.4,391.8 295.4,391.8 301,399 365,399 				"/>
				<polygon class="st5" points="301,399 188.3,399 158.3,304.8 271,304.8 				"/>
				<g>
					<path class="st8" d="M226.6,362.7l-4.3-2.4c-10.2-5.6-11.3-9.7-11.7-11.2c-1-3.7,1.2-6.7,4.9-6.7c2.3,0,4.7,1.2,6.4,3
						c0.7-1.8,2.4-3,4.8-3c3.7,0,7.5,3,8.5,6.7c0.4,1.5,1.5,5.6-5.6,11.2L226.6,362.7z"/>
				</g>
			</g>
			<g>
				<g>
					<path class="st0" d="M426.8,344.3l-4.5,30.9l-70,12.9c0,0-13.3-16.2-14.4-17.2c-1.1-1-12.4-2.9-13.8-2.9s-13.4,5.9-15.3,7.3
						c-1.9,1.4-5.1,11.7-5.6,12.8c-0.5,1.1-0.9,3.6,1.4,3.6s12.7,0,14.1,0c1.4,0,14.4,9.9,16.9,11.9s5.7,4.6,18.4,2
						c10.7,0.5,68.1,0.2,76.8-0.1c8.7-0.2,15.4-1.9,17.7-10.2c2.3-8.2,13.5-51,13.5-51L426.8,344.3L426.8,344.3z"/>
					<path class="st1" d="M424.7,358.7c4.5,2.1,14,5.7,31.2,8.7c3.1-12,6-23.1,6-23.1h-35.1L424.7,358.7z"/>
					<path class="st2" d="M426.8,344.3l-4.5,30.9l-70,12.9c0,0-13.3-16.2-14.4-17.2c-1.1-1-12.4-2.9-13.8-2.9s-13.4,5.9-15.3,7.3
						c-1.9,1.4-5.1,11.7-5.6,12.8c-0.5,1.1-0.9,3.6,1.4,3.6s12.7,0,14.1,0c1.4,0,14.4,9.9,16.9,11.9s5.7,4.6,18.4,2
						c10.7,0.5,68.1,0.2,76.8-0.1c8.7-0.2,15.4-1.9,17.7-10.2c2.3-8.2,13.5-51,13.5-51L426.8,344.3L426.8,344.3z"/>
				</g>
				<g>
					<path class="st6" d="M426.8,316.2l-3.1,34.7c0,0,27.8,1.9,45.8,0c0,0,3.7-34.7-3.4-58.1C460.8,293.3,428.8,286.2,426.8,316.2z"
						/>
					<path class="st2" d="M426.8,316.2l-3.1,34.7c0,0,27.8,1.9,45.8,0c0,0,3.7-34.7-3.4-58.1"/>
				</g>
			</g>
		</g>
		<g>
			<path class="st0" d="M476,300.8l-6.9,5.8c0,0,30.2,11.8,19.3,43.8c-11.9,35-64.7,47.3-115.7,65.5
				c-50.9,18.2-88.9,51.9-102.6,98.9c-12.8,43.8,7.1,87.6,44.2,93.4c9.1-1.2,167.8-27.7,167.8-27.7l41.3-205
				C525.5,320.2,476,300.8,476,300.8z"/>
			<path class="st2" d="M322.9,608.9c-42.6,0-66.5-47-52.8-94.1s51.7-80.7,102.6-98.9s103.7-30.5,115.7-65.5
				c10.9-32-19.3-43.8-19.3-43.8"/>
		</g>
	</g>
	<g>
		<g>
			<path class="st9" d="M577,185.9c0,10.1-8.2,18.4-18.4,18.4s-18.4-8.2-18.4-18.4s8.2-18.4,18.4-18.4
				C568.8,167.5,577,175.7,577,185.9z"/>
			<line class="st2" x1="558.7" y1="210.6" x2="558.7" y2="217.4"/>
			<line class="st2" x1="571" y1="207.3" x2="574.4" y2="213.2"/>
			<line class="st2" x1="580.1" y1="198.2" x2="586" y2="201.6"/>
			<line class="st2" x1="583.4" y1="185.9" x2="590.2" y2="185.9"/>
			<line class="st2" x1="580.1" y1="173.5" x2="586" y2="170.1"/>
			<line class="st2" x1="571" y1="164.4" x2="574.4" y2="158.5"/>
			<line class="st2" x1="558.7" y1="161.1" x2="558.7" y2="154.3"/>
			<line class="st2" x1="546.3" y1="164.4" x2="542.9" y2="158.5"/>
			<line class="st2" x1="537.2" y1="173.5" x2="531.3" y2="170.1"/>
			<line class="st2" x1="533.9" y1="185.9" x2="527.1" y2="185.9"/>
			<line class="st2" x1="537.2" y1="198.2" x2="531.3" y2="201.6"/>
			<line class="st2" x1="546.3" y1="207.3" x2="542.9" y2="213.2"/>
		</g>
		<line class="st10" x1="558.7" y1="0" x2="558.7" y2="143.3"/>
		<path class="st11" d="M502,190.1c-10.7,0-12.3-5-3.5-11.2l44.2-31c8.8-6.1,23.1-6.1,31.9,0l44.2,31c8.8,6.1,7.2,11.2-3.5,11.2H502
			z"/>
	</g>
	<g>
		<g>
			<g>
				<path class="st12" d="M552.6,550.7c-12-8.3-4.8-21.9-10.3-31c-5.6-9-2-18.3,3.7-24.3s7.1-10.9,3.1-19.3
					c-4-8.5,0.5-18.8,4.3-23.5c3.8-4.7,12.9-11.2,16.6-31.2c3.7-20,30.7-29.2,30.7-29.2s17.4,22.6,9.3,41.3
					c-8,18.7-4.1,29.1-3.6,35.2c0.5,6-1.4,17.1-9.5,21.9c-8,4.8-9.6,9.6-8.2,17.8c1.4,8.1-0.7,17.8-10.4,22.3
					C568.7,535,567.2,550.4,552.6,550.7z"/>
				<line class="st2" x1="552.6" y1="550.7" x2="600.6" y2="392.2"/>
				<line class="st2" x1="560.9" y1="523.1" x2="551.2" y2="504.1"/>
				<line class="st2" x1="562.7" y1="517.7" x2="582.5" y2="509.8"/>
				<line class="st2" x1="588.7" y1="432.1" x2="605" y2="425.6"/>
				<line class="st2" x1="574.8" y1="477.4" x2="601.1" y2="467.1"/>
				<line class="st2" x1="573.5" y1="481.5" x2="561.2" y2="457.6"/>
				<line class="st2" x1="586.5" y1="438.6" x2="579" y2="423.9"/>
			</g>
			<g>
				<path class="st12" d="M550.3,542.9c11.2-7.5,4.6-20.2,9.8-28.5c5.2-8.3,2-16.9-3.2-22.4s-6.5-10.1-2.7-17.8s-0.3-17.3-3.8-21.7
					c-3.4-4.4-11.8-10.5-15-28.9s-28-27.1-28-27.1s-16.2,20.7-9,38s3.5,26.9,3,32.4c-0.5,5.5,1.2,15.8,8.5,20.3
					c7.4,4.5,8.8,9,7.4,16.4s0.5,16.4,9.4,20.6C535.6,528.4,536.9,542.6,550.3,542.9z"/>
				<line class="st2" x1="550.3" y1="542.9" x2="507.5" y2="396.5"/>
				<line class="st2" x1="542.9" y1="517.5" x2="552.1" y2="500"/>
				<line class="st2" x1="541.3" y1="512.5" x2="523.1" y2="505.1"/>
				<line class="st2" x1="518.1" y1="433.4" x2="503.1" y2="427.3"/>
				<line class="st2" x1="530.5" y1="475.3" x2="506.4" y2="465.5"/>
				<line class="st2" x1="531.7" y1="479.1" x2="543.2" y2="457.1"/>
				<line class="st2" x1="520" y1="439.4" x2="527.1" y2="426"/>
			</g>
			<g>
				<path class="st12" d="M537.9,545.3c4-6.5-2.3-11.5-1.5-17c0.8-5.5-2.9-9.2-6.8-10.9c-4-1.7-5.7-3.7-5.5-8.6
					c0.2-4.9-4.2-8.9-7-10.4c-2.8-1.5-8.5-2.7-14.4-11.5c-5.9-8.8-20.8-7.6-20.8-7.6s-3.6,14.5,4.1,21.7c7.8,7.3,8,13.1,9,16.1
					c1,3,4.2,7.9,9.1,8.5c4.9,0.6,6.6,2.6,7.6,6.8c1,4.2,4.1,8.4,9.6,8.5C526.9,541.2,530.8,548.3,537.9,545.3z"/>
				<line class="st2" x1="537.9" y1="545.3" x2="481.9" y2="479.5"/>
				<line class="st2" x1="528.1" y1="533.9" x2="528.8" y2="522.8"/>
				<line class="st2" x1="526.1" y1="531.7" x2="515" y2="532"/>
				<line class="st2" x1="495.9" y1="496.1" x2="486.7" y2="496.4"/>
				<line class="st2" x1="512" y1="514.9" x2="497.2" y2="515.4"/>
				<line class="st2" x1="513.4" y1="516.6" x2="514.3" y2="502.6"/>
				<line class="st2" x1="498.3" y1="498.8" x2="498.8" y2="490.2"/>
			</g>
			<g>
				<path class="st12" d="M564.1,545.3c-4-6.5,2.3-11.5,1.5-17c-0.8-5.5,2.9-9.2,6.8-10.9c4-1.7,5.7-3.7,5.5-8.6
					c-0.2-4.9,4.2-8.9,7-10.4c2.8-1.5,8.5-2.7,14.4-11.5c5.9-8.8,20.8-7.6,20.8-7.6s3.6,14.5-4.1,21.7c-7.8,7.3-8,13.1-9,16.1
					c-1,3-4.2,7.9-9.1,8.5c-4.8,0.6-6.6,2.6-7.6,6.8c-1,4.2-4.1,8.4-9.6,8.5C575.1,541.2,571.2,548.3,564.1,545.3z"/>
				<line class="st2" x1="564.1" y1="545.3" x2="620.1" y2="479.5"/>
				<line class="st2" x1="573.9" y1="533.9" x2="573.2" y2="522.8"/>
				<line class="st2" x1="575.8" y1="531.7" x2="587" y2="532"/>
				<line class="st2" x1="606.1" y1="496.1" x2="615.3" y2="496.4"/>
				<line class="st2" x1="590" y1="514.9" x2="604.8" y2="515.4"/>
				<line class="st2" x1="588.6" y1="516.6" x2="587.6" y2="502.6"/>
				<line class="st2" x1="603.7" y1="498.8" x2="603.2" y2="490.2"/>
			</g>
		</g>
		<polygon class="st5" points="584,592.6 518,592.6 507.3,534.7 594.7,534.7 		"/>
		<g>
			<g>
				<rect x="506.4" y="574.7" class="st3" width="8.3" height="43.8"/>
				<rect x="587.3" y="574.7" class="st3" width="8.3" height="43.8"/>
			</g>
			<rect x="514.7" y="592.6" class="st3" width="72.5" height="7.6"/>
			<rect x="546.8" y="574.7" class="st3" width="8.3" height="43.8"/>
		</g>
	</g>
</g>
</svg>
