<?xml version="1.0" encoding="utf-8"?>
<!-- Generator: Adobe Illustrator 24.1.2, SVG Export Plug-In . SVG Version: 6.00 Build 0)  -->
<svg version="1.1" id="Layer_1" xmlns="http://www.w3.org/2000/svg" xmlns:xlink="http://www.w3.org/1999/xlink" x="0px" y="0px"
	 viewBox="0 0 627 625" style="enable-background:new 0 0 627 625;" xml:space="preserve">
<style type="text/css">
	.st0{fill:#FFFFFF;}
	.st1{opacity:0.6;fill:#C8C8C8;}
	.st2{fill:none;stroke:#1C1C1C;stroke-width:2;stroke-linecap:round;stroke-linejoin:round;stroke-miterlimit:10;}
	.st3{fill:#FFFFFF;stroke:#1C1C1C;stroke-width:2;stroke-linecap:round;stroke-linejoin:round;stroke-miterlimit:10;}
	.st4{fill:#C7E6FF;}
	.st5{fill:#1C1C1C;stroke:#1C1C1C;stroke-width:2;stroke-linecap:round;stroke-linejoin:round;stroke-miterlimit:10;}
	.st6{fill:#1C1C1C;}
	.st7{opacity:0.6;fill:#C8C8C8;stroke:#1C1C1C;stroke-width:2;stroke-linecap:round;stroke-linejoin:round;stroke-miterlimit:10;}
	.st8{fill:#FFBCBC;stroke:#1C1C1C;stroke-width:2;stroke-miterlimit:10;}
	.st9{fill:#FFFDBB;stroke:#1C1C1C;stroke-width:2;stroke-linejoin:round;stroke-miterlimit:10;}
	.st10{fill:none;stroke:#1C1C1C;stroke-width:2;stroke-linejoin:round;stroke-miterlimit:10;}
	.st11{fill:#1C1C1C;stroke:#1C1C1C;stroke-width:2;stroke-linejoin:round;stroke-miterlimit:10;}
	.st12{fill:#C5FFCA;stroke:#1C1C1C;stroke-width:2;stroke-linecap:round;stroke-linejoin:round;stroke-miterlimit:10;}
</style>
<g>
	<g>
		<g>
			<path class="st0" d="M453.07,289.15c-46.19-8.47-79.29,6.18-105.11,28.73c-25.82,22.55-34,57.89-112.48,73.87
				c-78.48,15.97-105.31,53.44-110.8,100.72c-5.5,47.28,31.68,116.39,118.75,116.39c87.07,0,140.9,0,172.54,0
				c31.64,0,102.93-7.27,133.49-77.11C580.01,461.92,584.01,313.16,453.07,289.15z"/>
			<path class="st1" d="M488.42,325.32c-8.12-13.12-12.8-17.8-31.52-22.16c-18.73-4.36-87.84,18.73-104.68,28.91
				c-16.83,10.18-41.72,45.1-71.18,63.32c-29.46,18.22-101.84,31.13-113.38,112.12c-8.53,59.94,25,88.25,59.53,100.5
				c5.21,0.55,10.62,0.85,16.24,0.85c32,0,59.49,0,83.06,0c8.92-26.3,34.48-70.68,88.88-117.36
				C490.53,427,496.53,338.43,488.42,325.32z"/>
			<path class="st2" d="M453.07,289.15c-46.19-8.47-79.29,6.18-105.11,28.73c-25.82,22.55-34,57.89-112.48,73.87
				c-78.48,15.97-105.31,53.44-110.8,100.72c-5.5,47.28,31.68,116.39,118.75,116.39c87.07,0,140.9,0,172.54,0
				c31.64,0,102.93-7.27,133.49-77.11C580.01,461.92,584.01,313.16,453.07,289.15z"/>
		</g>
		<g>
			<g>
				<path class="st3" d="M122.45,518.9l-34.49,45.03l3.9,16.08l16.77,7.88c0,0,1.95-6.74,6.55-12.71
					c4.6-5.96,29.74-37.12,29.74-37.12L122.45,518.9z"/>
				<g>
					<g id="XMLID_245_">
						<g>
							<polygon class="st0" points="100.54,613.11 94.54,622 0.08,566.6 6.07,557.71 35.85,575.18 							"/>
							<path class="st4" d="M74.77,555.29c8.24-0.91,11.08-4.03,13.72-2.22c2.67,1.85,3.69,7.36-1.56,10.85
								c-1.53-0.96-3.44-1.56-6.22-1.96c-5.79-0.88-29.23-3.81-34.46-4.26c-5.23-0.46-6.16,3.1-6.16,3.1
								c0.03-3.01-0.51-5.09-0.82-6.02c0,0,1.36-2.59,5.99-1.82C49.85,553.73,66.56,556.17,74.77,555.29z"/>
							<path class="st4" d="M46.24,557.71c5.23,0.45,28.67,3.38,34.46,4.26c2.79,0.4,4.69,1,6.22,1.96c1.68,1.02,2.9,2.5,4.23,4.77
								c2.59,4.38,6.48,8.98,11.45,11.73c4.97,2.76,7.64,2.13,7.93,6.48c0.26,4.35-2.64,16.96-10,26.2l-64.69-37.93
								c3.27-5.8,4.18-10.74,4.23-14.38C40.08,560.8,41.02,557.25,46.24,557.71z"/>
							<path class="st0" d="M39.26,554.78c0.31,0.94,0.85,3.01,0.82,6.02c-0.06,3.64-0.97,8.58-4.23,14.38L6.07,557.71
								c0,0,7.67-12.96,32.99-3.46C39.06,554.24,39.14,554.44,39.26,554.78z"/>
						</g>
						<g>
							<polygon class="st2" points="100.54,613.11 35.85,575.18 6.07,557.71 0.08,566.6 94.54,622 							"/>
							<path class="st2" d="M6.07,557.71c0,0,7.67-12.96,32.99-3.46c0,0,0.08,0.2,0.2,0.54c0.31,0.94,0.85,3.01,0.82,6.02
								c-0.06,3.64-0.97,8.58-4.23,14.38"/>
							<path class="st2" d="M40.08,560.8c0,0,0.94-3.55,6.16-3.1c5.23,0.45,28.67,3.38,34.46,4.26c2.79,0.4,4.69,1,6.22,1.96
								c1.68,1.02,2.9,2.5,4.23,4.77c2.59,4.38,6.48,8.98,11.45,11.73c4.97,2.76,7.64,2.13,7.93,6.48c0.26,4.35-2.64,16.96-10,26.2"
								/>
							<path class="st2" d="M39.26,554.78c0,0,1.36-2.59,5.99-1.82c4.6,0.77,21.31,3.21,29.52,2.33c8.24-0.91,11.08-4.03,13.72-2.22
								c2.67,1.85,3.69,7.36-1.56,10.85"/>
						</g>
					</g>
					<g>
						<path class="st3" d="M51.94,563.12c0.1,1.21-0.79,2.27-1.99,2.38l0,0c-1.21,0.11-2.27-0.78-2.37-1.99l-0.98-11.2
							c-0.11-1.21,0.78-2.27,1.99-2.38l0,0c1.21-0.1,2.27,0.79,2.38,1.99L51.94,563.12z"/>
						<path class="st3" d="M61.09,564.78c0.11,1.21-0.78,2.27-1.99,2.38l0,0c-1.21,0.1-2.27-0.79-2.38-1.99l-1.15-12.16
							c-0.11-1.21,0.78-2.27,1.99-2.38l0,0c1.21-0.1,2.27,0.79,2.37,2L61.09,564.78z"/>
						<path class="st3" d="M70.24,566.45c0.1,1.21-0.79,2.27-1.99,2.38l0,0c-1.21,0.11-2.27-0.79-2.37-1.99l-1.33-13.12
							c-0.11-1.21,0.78-2.27,1.99-2.38l0,0c1.21-0.1,2.27,0.79,2.37,1.99L70.24,566.45z"/>
						<path class="st3" d="M79.39,568.13c0.11,1.2-0.78,2.27-1.99,2.37l0,0c-1.2,0.11-2.27-0.78-2.37-1.99l-1.51-14.08
							c-0.11-1.21,0.78-2.27,1.99-2.38l0,0c1.2-0.1,2.27,0.79,2.37,1.99L79.39,568.13z"/>
					</g>
				</g>
				<g>
					<g>
						<path class="st0" d="M200.76,399.02L117.3,522.54l32.55,28.86l73.69-92.39c0,0,45.07,19.64,55.75,19.64
							c10.67,0,48.74,0,53.83,0c5.09,0,25.73-3.44,33.4-24.73c3.87-10.76,9.88-37.76-24.17-54.89H200.76z"/>
						<path class="st1" d="M342.34,399.02H200.76l-30.11,44.56l38.47,33.5l14.42-18.07c0,0,45.07,19.64,55.75,19.64
							c10.67,0,48.74,0,53.83,0c5.09,0,25.73-3.44,33.4-24.73C370.38,443.15,376.39,416.15,342.34,399.02z"/>
						<path class="st2" d="M200.76,399.02L117.3,522.54l32.55,28.86l73.69-92.39c0,0,45.07,19.64,55.75,19.64
							c10.67,0,48.74,0,53.83,0c5.09,0,25.73-3.44,33.4-24.73c3.87-10.76,9.88-37.76-24.17-54.89H200.76z"/>
					</g>
					<path class="st2" d="M223.54,459.01c0,0,6.6-19.82,0.23-35.64"/>
					<line class="st2" x1="124.68" y1="511.62" x2="157.53" y2="541.76"/>
				</g>
			</g>
			<path class="st5" d="M455.97,204.13c-3.45,25-5.09,32.64,2.74,45.19c7.82,12.55,16,31.64,1.63,44.92h-67.1v-92.02L455.97,204.13z
				"/>
			<path class="st5" d="M386.91,266.15c-4.4,3.85-19.31,10.75-22.59,12.94c-3.27,2.18-19.4,22.79-21.58,31.89
				c-2.18,9.09-0.12,27.04-1.82,38.92c-1.69,11.88-18.06,58.56-18.06,58.56l80.74,45.46c0,0,4.73-15.76,5.7-28.61
				c0.97-12.85,4.12-23.76,14.07-37.1c9.94-13.34,40.43-65.04,42.79-78.86c2.37-13.82,0.62-19.82-8.12-27.71
				c-5.5-4.96-22.67-13.45-22.67-13.45L386.91,266.15z"/>
			<g>
				<path class="st3" d="M169.25,518.9l-27.76,45.03l6.3,16.08l17.94,7.88c0,0,0.94-6.74,4.66-12.71
					c3.71-5.96,24.2-37.12,24.2-37.12L169.25,518.9z"/>
				<g id="XMLID_244_">
					<g>
						<polygon class="st0" points="157.64,613.11 151.65,622 57.18,566.6 63.17,557.71 92.95,575.18 						"/>
						<path class="st4" d="M131.88,555.29c8.24-0.91,11.08-4.03,13.72-2.22c2.67,1.85,3.69,7.36-1.57,10.85
							c-1.53-0.96-3.44-1.56-6.22-1.96c-5.79-0.88-29.23-3.81-34.46-4.26c-5.23-0.46-6.16,3.1-6.16,3.1
							c0.03-3.01-0.52-5.09-0.82-6.02c0,0,1.36-2.59,5.99-1.82C106.96,553.73,123.66,556.17,131.88,555.29z"/>
						<path class="st4" d="M103.35,557.71c5.23,0.45,28.67,3.38,34.46,4.26c2.78,0.4,4.69,1,6.22,1.96c1.68,1.02,2.9,2.5,4.23,4.77
							c2.59,4.38,6.48,8.98,11.45,11.73c4.97,2.76,7.64,2.13,7.93,6.48c0.26,4.35-2.64,16.96-10,26.2l-64.69-37.93
							c3.27-5.8,4.18-10.74,4.24-14.38C97.19,560.8,98.12,557.25,103.35,557.71z"/>
						<path class="st0" d="M96.36,554.78c0.31,0.94,0.85,3.01,0.82,6.02c-0.06,3.64-0.97,8.58-4.24,14.38l-29.77-17.47
							c0,0,7.67-12.96,32.99-3.46C96.16,554.24,96.25,554.44,96.36,554.78z"/>
					</g>
					<g>
						<polygon class="st2" points="157.64,613.11 92.95,575.18 63.17,557.71 57.18,566.6 151.65,622 						"/>
						<path class="st2" d="M63.17,557.71c0,0,7.67-12.96,32.99-3.46c0,0,0.09,0.2,0.2,0.54c0.31,0.94,0.85,3.01,0.82,6.02
							c-0.06,3.64-0.97,8.58-4.24,14.38"/>
						<path class="st2" d="M97.19,560.8c0,0,0.93-3.55,6.16-3.1c5.23,0.45,28.67,3.38,34.46,4.26c2.78,0.4,4.69,1,6.22,1.96
							c1.68,1.02,2.9,2.5,4.23,4.77c2.59,4.38,6.48,8.98,11.45,11.73c4.97,2.76,7.64,2.13,7.93,6.48c0.26,4.35-2.64,16.96-10,26.2"
							/>
						<path class="st2" d="M96.36,554.78c0,0,1.36-2.59,5.99-1.82c4.6,0.77,21.31,3.21,29.52,2.33c8.24-0.91,11.08-4.03,13.72-2.22
							c2.67,1.85,3.69,7.36-1.57,10.85"/>
					</g>
				</g>
				<g>
					<path class="st3" d="M109.04,563.12c0.1,1.21-0.79,2.27-1.99,2.38l0,0c-1.21,0.11-2.27-0.78-2.37-1.99l-0.98-11.2
						c-0.11-1.21,0.79-2.27,1.99-2.38l0,0c1.21-0.1,2.26,0.79,2.37,1.99L109.04,563.12z"/>
					<path class="st3" d="M118.19,564.78c0.11,1.21-0.78,2.27-1.99,2.38l0,0c-1.21,0.1-2.27-0.79-2.37-1.99l-1.16-12.16
						c-0.11-1.21,0.78-2.27,1.99-2.38l0,0c1.2-0.1,2.27,0.79,2.37,2L118.19,564.78z"/>
					<path class="st3" d="M127.34,566.45c0.11,1.21-0.79,2.27-1.99,2.38l0,0c-1.21,0.11-2.27-0.79-2.38-1.99l-1.32-13.12
						c-0.11-1.21,0.78-2.27,1.99-2.38l0,0c1.21-0.1,2.27,0.79,2.37,1.99L127.34,566.45z"/>
					<path class="st3" d="M136.49,568.13c0.11,1.2-0.78,2.27-1.99,2.37l0,0c-1.21,0.11-2.27-0.78-2.37-1.99l-1.5-14.08
						c-0.11-1.21,0.78-2.27,1.99-2.38l0,0c1.21-0.1,2.26,0.79,2.37,1.99L136.49,568.13z"/>
				</g>
			</g>
			<g>
				<path class="st3" d="M229.66,399.02l-65.01,123.51l36.86,28.86l59.89-92.39c0,0,48.01,19.64,58.68,19.64
					c10.67,0,48.74,0,53.83,0c5.09,0,25.22-3.44,29.7-24.73c2.27-10.76,4.25-37.76-32.37-54.89H229.66z"/>
				<path class="st2" d="M261.39,459.01c0,0,3.64-19.82-5.09-35.64"/>
				<line class="st2" x1="170.39" y1="511.62" x2="207.75" y2="541.76"/>
			</g>
			<g>
				<g>
					<path class="st0" d="M428.46,228.9c0,0-1.57,15.03-0.97,23.64c0.61,8.61,7.88,15.64,7.88,15.64s-11.64,19.04-38.31,14.07
						c-11.58-2.16-12.73-12.61-11.03-15.03c1.7-2.42,12-10.26,12-38.31H428.46z"/>
					<path class="st1" d="M427.35,247.46c0.04-8.4,1.1-18.56,1.1-18.56h-30.43c0,28.05-10.3,35.89-12,38.31
						c-0.81,1.16-0.95,4.14,0.35,7.17C405.87,271.37,420.94,255.41,427.35,247.46z"/>
					<path class="st2" d="M428.46,228.9c0,0-1.57,15.03-0.97,23.64c0.61,8.61,7.88,15.64,7.88,15.64s-11.64,19.04-38.31,14.07
						c-11.58-2.16-12.73-12.61-11.03-15.03c1.7-2.42,12-10.26,12-38.31H428.46z"/>
				</g>
				<path class="st5" d="M379.49,160.62c-21.48,12.63-42.33,45.03-4.02,50.59h11.88v-50.59H379.49z"/>
				<path class="st3" d="M386.69,168.4c-14.24,9.34-17.28,22.73-17.28,36.92s0.09,14.64-0.64,21.92
					c-0.73,7.27,6.15,25.79,15.06,27.26c10.18,1.68,32.95-3.26,42.95-18.99c11.27-3.64,20.4-12.71,21.31-36.19
					C449.19,170.95,414.24,150.34,386.69,168.4z"/>
				<path class="st5" d="M378.02,161.61c-4.77,3.58,1.34,28.12,23.52,42.31c20.47,13.09,37.83,14.07,37.83,14.07
					s13.5,0.58,15.76-8.97c3.27-13.82,0.36-36.25-23.03-48.98C411.69,148.93,386.75,155.07,378.02,161.61z"/>
				<g>
					<path class="st0" d="M430.25,218.77c0,0,4.46-8,11.55-7.55c7.1,0.45,4.46,11.64,0,17.28c-4.45,5.64-11.91,7.36-15,7
						C426.79,235.5,426.7,227.23,430.25,218.77z"/>
					<path class="st2" d="M430.25,218.77c0,0,4.46-8,11.55-7.55c7.1,0.45,4.46,11.64,0,17.28c-4.45,5.64-11.91,7.36-15,7"/>
				</g>
				<path class="st6" d="M402.21,214.05c0,2.18-1.38,3.94-3.09,3.94c-1.7,0-3.09-1.76-3.09-3.94c0-2.18,1.38-3.94,3.09-3.94
					C400.83,210.11,402.21,211.87,402.21,214.05z"/>
				<path class="st6" d="M376.51,214.05c0,1.91-1.13,3.46-2.52,3.46s-2.51-1.55-2.51-3.46c0-1.91,1.12-3.46,2.51-3.46
					S376.51,212.14,376.51,214.05z"/>
				<path class="st2" d="M381.24,230.05c0,0-2.09-1.18-1-4.64"/>
				<path class="st2" d="M380.58,239.69c0,0,6.2,2,12.66-1.73"/>
				<path class="st2" d="M394.06,204.13c0,0,3.27-1.73,11,0"/>
				<path class="st2" d="M376.51,203.37c0,0-2-1.15-4.63-1.14"/>
			</g>
			<path class="st3" d="M368.73,249.63c0,0,9.38,0,11.85,0c2.48,0,4.78,0.67,6.6,2.42c1.82,1.76,6.25,5.03,7.27,5.88
				c1.03,0.85,2.79,1.7,2.54,2.55c-0.24,0.85-3.05,2.88-6.74,1.41c-3.69-1.47-5.44-2.86-6.66-3.29c-1.21-0.42-4.55-0.42-4.55-0.42
				s0,15.03,0,16.25c0,1.21-7.82,9.94-9.21,10.73c-1.4,0.79-5.64,0.3-6.61,0s-7.64-2.08-7.64-2.08s-12.97,44.03-15.64,53.36
				c-2.67,9.33-15.88,16.28-24.01,15.42c-8.12-0.87-9.22-14.69-8.25-21c0.97-6.3,36.98-62.48,38.92-64.7
				C348.56,263.93,366.95,249.63,368.73,249.63z"/>
			<g>
				<polygon class="st7" points="359.41,391.75 295.4,391.75 301.04,399.02 365.05,399.02 				"/>
				<polygon class="st5" points="301.04,399.02 188.28,399.02 158.28,304.82 271.03,304.82 				"/>
				<g>
					<path class="st8" d="M226.56,362.74l-4.28-2.36c-10.2-5.6-11.31-9.69-11.73-11.23c-1.01-3.71,1.17-6.71,4.88-6.71
						c2.33,0,4.72,1.19,6.41,3c0.71-1.81,2.44-3,4.77-3c3.71,0,7.53,3.01,8.54,6.71c0.42,1.54,1.54,5.63-5.59,11.23L226.56,362.74z"
						/>
				</g>
			</g>
			<g>
				<g>
					<path class="st0" d="M426.79,344.32l-4.46,30.85l-70.01,12.91c0,0-13.28-16.19-14.37-17.18c-1.09-1-12.37-2.91-13.82-2.91
						c-1.45,0-13.37,5.91-15.28,7.27c-1.91,1.37-5.09,11.73-5.63,12.82c-0.55,1.09-0.91,3.64,1.36,3.64c2.27,0,12.73,0,14.09,0
						c1.37,0,14.37,9.91,16.92,11.91s5.73,4.64,18.37,2c10.73,0.46,68.08,0.16,76.81-0.09c8.73-0.24,15.4-1.94,17.7-10.18
						c2.3-8.25,13.46-51.04,13.46-51.04H426.79z"/>
					<path class="st1" d="M424.72,358.68c4.48,2.1,13.99,5.71,31.16,8.74c3.14-11.99,6.04-23.1,6.04-23.1h-35.13L424.72,358.68z"/>
					<path class="st2" d="M426.79,344.32l-4.46,30.85l-70.01,12.91c0,0-13.28-16.19-14.37-17.18c-1.09-1-12.37-2.91-13.82-2.91
						c-1.45,0-13.37,5.91-15.28,7.27c-1.91,1.37-5.09,11.73-5.63,12.82c-0.55,1.09-0.91,3.64,1.36,3.64c2.27,0,12.73,0,14.09,0
						c1.37,0,14.37,9.91,16.92,11.91s5.73,4.64,18.37,2c10.73,0.46,68.08,0.16,76.81-0.09c8.73-0.24,15.4-1.94,17.7-10.18
						c2.3-8.25,13.46-51.04,13.46-51.04H426.79z"/>
				</g>
				<g>
					<path class="st6" d="M426.79,316.25l-3.06,34.74c0,0,27.76,1.94,45.82,0c0,0,3.72-34.74-3.41-58.11
						C460.83,293.28,428.82,286.25,426.79,316.25z"/>
					<path class="st2" d="M426.79,316.25l-3.06,34.74c0,0,27.76,1.94,45.82,0c0,0,3.72-34.74-3.41-58.11"/>
				</g>
			</g>
		</g>
		<g>
			<path class="st0" d="M475.98,300.78l-6.93,5.77c0,0,30.21,11.83,19.3,43.83c-11.93,34.98-64.74,47.29-115.66,65.47
				c-50.92,18.19-88.9,51.88-102.58,98.93c-12.75,43.8,7.09,87.61,44.24,93.43c9.11-1.24,167.82-27.72,167.82-27.72l41.34-204.96
				C525.45,320.18,475.98,300.78,475.98,300.78z"/>
			<path class="st2" d="M322.86,608.86c-42.56,0-66.45-47.04-52.76-94.08c13.69-47.04,51.66-80.74,102.58-98.93
				c50.92-18.19,103.73-30.49,115.66-65.47c10.91-32.01-19.3-43.83-19.3-43.83"/>
		</g>
	</g>
	<g>
		<g>
			<path class="st9" d="M577.02,185.87c0,10.14-8.22,18.36-18.36,18.36c-10.14,0-18.36-8.22-18.36-18.36
				c0-10.14,8.22-18.36,18.36-18.36C568.8,167.52,577.02,175.73,577.02,185.87z"/>
			<line class="st2" x1="558.66" y1="210.6" x2="558.66" y2="217.43"/>
			<line class="st2" x1="571.03" y1="207.29" x2="574.44" y2="213.2"/>
			<line class="st2" x1="580.08" y1="198.24" x2="585.99" y2="201.65"/>
			<line class="st2" x1="583.39" y1="185.87" x2="590.22" y2="185.87"/>
			<line class="st2" x1="580.08" y1="173.5" x2="585.99" y2="170.09"/>
			<line class="st2" x1="571.03" y1="164.45" x2="574.44" y2="158.54"/>
			<line class="st2" x1="558.66" y1="161.14" x2="558.66" y2="154.31"/>
			<line class="st2" x1="546.29" y1="164.45" x2="542.88" y2="158.54"/>
			<line class="st2" x1="537.24" y1="173.51" x2="531.33" y2="170.09"/>
			<line class="st2" x1="533.93" y1="185.87" x2="527.1" y2="185.87"/>
			<line class="st2" x1="537.24" y1="198.24" x2="531.33" y2="201.65"/>
			<line class="st2" x1="546.29" y1="207.29" x2="542.88" y2="213.2"/>
		</g>
		<line class="st10" x1="558.66" y1="0" x2="558.66" y2="143.28"/>
		<path class="st11" d="M502.03,190.1c-10.7,0-12.29-5.03-3.53-11.18l44.23-31.04c8.76-6.15,23.09-6.15,31.86,0l44.23,31.04
			c8.76,6.15,7.17,11.18-3.53,11.18H502.03z"/>
	</g>
	<g>
		<g>
			<g>
				<path class="st12" d="M552.56,550.65c-12.02-8.28-4.75-21.93-10.32-30.97c-5.57-9.04-1.99-18.32,3.71-24.28
					c5.7-5.96,7.1-10.85,3.08-19.3c-4.02-8.45,0.52-18.76,4.3-23.49c3.78-4.72,12.88-11.22,16.57-31.24
					c3.69-20.01,30.72-29.17,30.72-29.17s17.39,22.63,9.34,41.32c-8.05,18.68-4.1,29.15-3.57,35.18c0.52,6.03-1.44,17.13-9.47,21.92
					c-8.04,4.79-9.59,9.64-8.16,17.76c1.43,8.12-0.74,17.83-10.4,22.26C568.69,535.05,567.16,550.44,552.56,550.65z"/>
				<line class="st12" x1="552.56" y1="550.65" x2="600.61" y2="392.2"/>
				<line class="st12" x1="560.93" y1="523.07" x2="551.15" y2="504.08"/>
				<line class="st12" x1="562.69" y1="517.65" x2="582.55" y2="509.81"/>
				<line class="st12" x1="588.67" y1="432.06" x2="604.97" y2="425.63"/>
				<line class="st12" x1="574.83" y1="477.43" x2="601.12" y2="467.06"/>
				<line class="st12" x1="573.52" y1="481.55" x2="561.2" y2="457.61"/>
				<line class="st12" x1="586.54" y1="438.59" x2="578.99" y2="423.94"/>
			</g>
			<g>
				<path class="st12" d="M550.35,542.94c11.15-7.52,4.57-20.16,9.77-28.45c5.21-8.28,1.99-16.86-3.21-22.4
					c-5.2-5.54-6.45-10.06-2.67-17.81c3.78-7.75-0.31-17.29-3.76-21.68c-3.44-4.38-11.77-10.45-14.99-28.92
					c-3.22-18.47-28.04-27.14-28.04-27.14s-16.22,20.7-8.96,37.98c7.26,17.28,3.52,26.89,2.99,32.44
					c-0.53,5.55,1.17,15.79,8.54,20.27c7.36,4.48,8.75,8.96,7.36,16.43c-1.39,7.47,0.53,16.43,9.39,20.59
					C535.63,528.43,536.91,542.62,550.35,542.94z"/>
				<line class="st12" x1="550.35" y1="542.94" x2="507.46" y2="396.55"/>
				<line class="st12" x1="542.89" y1="517.46" x2="552.06" y2="500.05"/>
				<line class="st12" x1="541.31" y1="512.45" x2="523.08" y2="505.06"/>
				<line class="st12" x1="518.12" y1="433.38" x2="503.15" y2="427.31"/>
				<line class="st12" x1="530.47" y1="475.3" x2="506.35" y2="465.51"/>
				<line class="st12" x1="531.65" y1="479.1" x2="543.2" y2="457.15"/>
				<line class="st12" x1="520.02" y1="439.41" x2="527.1" y2="425.98"/>
			</g>
			<g>
				<path class="st12" d="M537.86,545.35c4.03-6.47-2.29-11.49-1.51-16.99c0.78-5.49-2.86-9.19-6.83-10.86
					c-3.97-1.67-5.66-3.72-5.49-8.6c0.17-4.88-4.15-8.88-6.95-10.36c-2.8-1.48-8.51-2.7-14.44-11.51
					c-5.93-8.82-20.79-7.58-20.79-7.58s-3.62,14.46,4.13,21.73c7.75,7.28,8.03,13.11,9.04,16.11c1,3,4.25,7.9,9.1,8.53
					c4.85,0.62,6.6,2.62,7.61,6.81c1,4.19,4.07,8.38,9.61,8.5C526.89,541.24,530.82,548.29,537.86,545.35z"/>
				<line class="st12" x1="537.86" y1="545.35" x2="481.86" y2="479.45"/>
				<line class="st12" x1="528.12" y1="533.88" x2="528.84" y2="522.75"/>
				<line class="st12" x1="526.14" y1="531.65" x2="514.99" y2="532.03"/>
				<line class="st12" x1="495.88" y1="496.07" x2="486.73" y2="496.38"/>
				<line class="st12" x1="511.95" y1="514.92" x2="497.2" y2="515.42"/>
				<line class="st12" x1="513.44" y1="516.61" x2="514.35" y2="502.58"/>
				<line class="st12" x1="498.26" y1="498.75" x2="498.82" y2="490.16"/>
			</g>
			<g>
				<path class="st12" d="M564.13,545.35c-4.03-6.47,2.29-11.49,1.51-16.99c-0.78-5.49,2.86-9.19,6.83-10.86
					c3.97-1.67,5.66-3.72,5.49-8.6c-0.17-4.88,4.15-8.88,6.95-10.36c2.8-1.48,8.51-2.7,14.44-11.51c5.93-8.82,20.79-7.58,20.79-7.58
					s3.62,14.46-4.13,21.73c-7.75,7.28-8.03,13.11-9.04,16.11c-1,3-4.25,7.9-9.1,8.53c-4.85,0.62-6.6,2.62-7.61,6.81
					c-1,4.19-4.07,8.38-9.61,8.5C575.11,541.24,571.17,548.29,564.13,545.35z"/>
				<line class="st12" x1="564.13" y1="545.35" x2="620.14" y2="479.45"/>
				<line class="st12" x1="573.88" y1="533.88" x2="573.15" y2="522.75"/>
				<line class="st12" x1="575.85" y1="531.65" x2="587" y2="532.03"/>
				<line class="st12" x1="606.11" y1="496.07" x2="615.26" y2="496.38"/>
				<line class="st12" x1="590.05" y1="514.92" x2="604.79" y2="515.42"/>
				<line class="st12" x1="588.56" y1="516.61" x2="587.64" y2="502.58"/>
				<line class="st12" x1="603.74" y1="498.75" x2="603.17" y2="490.16"/>
			</g>
		</g>
		<polygon class="st5" points="584,592.6 517.99,592.6 507.34,534.69 594.66,534.69 		"/>
		<g>
			<g>
				<rect x="506.43" y="574.69" class="st3" width="8.29" height="43.85"/>
				<rect x="587.27" y="574.69" class="st3" width="8.29" height="43.85"/>
			</g>
			<rect x="514.72" y="592.6" class="st3" width="72.55" height="7.64"/>
			<rect x="546.85" y="574.69" class="st3" width="8.29" height="43.85"/>
		</g>
	</g>
</g>
</svg>
