<?xml version="1.0" encoding="utf-8"?>
<!-- Generator: Adobe Illustrator 24.1.0, SVG Export Plug-In . SVG Version: 6.00 Build 0)  -->
<svg version="1.1" id="Layer_1" xmlns="http://www.w3.org/2000/svg" xmlns:xlink="http://www.w3.org/1999/xlink" x="0px" y="0px"
	 viewBox="0 0 627 625" style="enable-background:new 0 0 627 625;" xml:space="preserve">
<style type="text/css">
	.st0{fill:#C5FFCA;stroke:#1C1C1C;stroke-width:2;stroke-linecap:round;stroke-linejoin:round;stroke-miterlimit:10;}
	.st1{clip-path:url(#SVGID_2_);}
	.st2{fill:#FFFFFF;stroke:#000000;stroke-width:2;stroke-miterlimit:10;}
	.st3{fill:#1C1C1C;stroke:#1C1C1C;stroke-width:2;stroke-linecap:round;stroke-linejoin:round;stroke-miterlimit:10;}
	.st4{fill:#FFBCBC;stroke:#1C1C1C;stroke-width:2;stroke-miterlimit:10;}
	.st5{fill:#FFFFFF;stroke:#1C1C1C;stroke-width:2;stroke-miterlimit:10;}
	.st6{fill:#C7E6FF;stroke:#1C1C1C;stroke-width:2;stroke-miterlimit:10;}
	.st7{fill:#1C1C1C;}
	.st8{opacity:0.6;fill:#C8C8C8;enable-background:new    ;}
	.st9{opacity:0.6;fill:none;stroke:#C8C8C8;stroke-width:4;stroke-miterlimit:10;enable-background:new    ;}
	.st10{fill:#FFFFFF;stroke:#1C1C1C;stroke-linecap:round;stroke-miterlimit:10;}
</style>
<path class="st0" d="M27.4,550c0,0,12.5-35.8,53.4-38.2c40.9-2.4,63.7-34.2,106-26.7c42.3,7.4,45.5,38.7,63.3,47.3
	s107.4-11.2,141.4-1.8s49.9-14,81.5-24.1s52.4,3.7,75.1,19.5c22.7,15.8,54.6-1.8,53.2,23.3L27.4,550z"/>
<path class="st0" d="M555,502.6c0,0,30.5-46.6,49.4-37.7C623.2,473.9,555,502.6,555,502.6z"/>
<path class="st0" d="M546.4,493.6c0,0,1.8-33.7,11.7-32.3C568,462.6,546.4,493.6,546.4,493.6z"/>
<g>
	<g>
		<g>
			<defs>
				<rect id="SVGID_1_" x="632.4" y="-26.1" width="558.7" height="653.8"/>
			</defs>
			<clipPath id="SVGID_2_">
				<use xlink:href="#SVGID_1_"  style="overflow:visible;"/>
			</clipPath>
			<g class="st1">
				<g>
					<path class="st0" d="M-160.9,553.7c-3.9-6.1-15.5-21.8-30.9-19.7c-16.8,2.3,18.6,13.4,29.5,19.8c-2.4,0-4.5-0.2-6-0.7
						c-7.3-2.6-19.7,2.4-23.7,4.1h69.1c-0.5-1.7-1.7-4.4-4.9-6.3c-1.1-0.7-3.4-0.8-6.4-0.6c4.1-4.8,7-20.3-4.5-16.3
						c-8.4,2.9-8.3,12.4-7.5,18c-1.8,0.3-3.6,0.6-5.4,0.8c-3.4-17.5-15.6-68.9-40.3-70.3c-25-1.4,21.2,53.3,36.6,70.8
						C-157.2,553.4-159.1,553.6-160.9,553.7z"/>
					<g>
						<g>
							<g>
								<path class="st2" d="M398.4,413.7l-0.4,18.2l-2.9,126.6c0,0.8-0.7,1.4-1.5,1.4l0,0c-1.4,0-2.5-1.1-2.5-2.4l-4.7-119.8
									l-0.9-23.9h12.9V413.7z"/>
								<path class="st2" d="M398.4,413.7l-0.4,18.2c-3.6,1.2-7.9,3-11.5,5.7l-0.9-23.9L398.4,413.7L398.4,413.7z"/>
							</g>
						</g>
					</g>
					<g>
						<path class="st2" d="M1138-90.5l-1.1,20.8c-30.7,2.8-74.6,8.5-110.5,19.1l-3.1-40L1138-90.5L1138-90.5z"/>
					</g>
					<g>
						<path class="st2" d="M1102.3-168.8V-95c0,1.4-0.4,2.7-1.1,3.9c-1.5,2.5-4.4,4.2-7.7,4.2H60.3c-4.8,0-8.7-3.6-8.7-8.1v-73.9
							c0-4.4,3.9-8.1,8.7-8.1h1033.2C1098.4-176.9,1102.3-173.3,1102.3-168.8z"/>
					</g>
				</g>
			</g>
		</g>
	</g>
</g>
<g>
	<path class="st3" d="M239.3,274c0,0-16.5,27.3-29.9,27.3l5.2,8.9c0,0,22.2-22.8,25.8-33.2L239.3,274z"/>
	<path class="st3" d="M242.3,211.4c0,0-7.8-2.8-11.5-2.8c-3.8,0-16.2,19.5-16.2,19.5l13.9,8.7L242.3,211.4z"/>
	<path class="st3" d="M218.6,228.1c0,0-8.7,8.2-8.7,16.9s-4.6,10.5-1.4,13.7c3.2,3.2,12.5,1.4,12.5,1.4l9.9-27.6L218.6,228.1z"/>
	<path class="st4" d="M274.2,162.9c0,0-15.1-6-20.1-6s-25.7,34.8-25.7,34.8l8.2,4.7c0,0,4.1,11.9-9.4,27.9s-21.7,40.8-5.6,47.7
		c16,6.9,24.8,8.5,29.5,3.8C255.7,271.1,274.2,162.9,274.2,162.9z"/>
	<path class="st5" d="M339.1,125.2c0,0,8.7,4.8,8.7,20.5c0,16.2-3.7,60.3,2.6,61.8c6.4,1.4,50.1-8.3,58.5-14.7l4.6,8.4
		c0,0-45.2,40.5-71.6,35.3s-33.7-53.2-31.3-74.1C313,141.3,335.9,122,339.1,125.2z"/>
	<polygon class="st6" points="422.8,185.4 446.1,153.3 439,148.1 420.9,178.9 	"/>
	<polygon class="st7" points="448.9,159.7 446.9,153 422.8,185.3 425.4,187.9 	"/>
	<path class="st3" d="M329.2,118.9c0,0-11.4-9.9-26-5S262.8,197,256,234.2c-1.1,5.7-11.3,51.2-8.1,62.9
		c17.6,64.6,85.8,162.9,85.8,162.9l46.4,129.4c0,0-3.9,13.6-2.5,17.2c1.4,3.5,8.7,0,14.8,0c6.1,0,21.9,0,23.1,0s12.7-0.3,12.7-0.3
		s-25-3.8-33.4-19.3c-8.5-15.5-26.6-144.1-26.6-144.1s-33.3-177-34.4-194.7s13-112.5,7.1-121C334.8,118.9,329.2,118.9,329.2,118.9z"
		/>
	<path class="st3" d="M247.8,297.2l1.1,131c0,0-45.7,129-52.3,135.6c-6.6,6.6-10.4,11.3-10.4,11.3s7.7,4.3,11.8,12.2
		c3.9,7.5,8,17.3,27.8,17.3s-8-3.7-10.4-9.8s-3.8-27.3-3.8-27.3l73-121c0,0,34.7-105.2,48.9-109.2l3.5-53.7L247.8,297.2z"/>
	<path class="st5" d="M333.6,248.4c-1.1-17.7,13-112.5,7.1-121s-11.5-8.5-11.5-8.5s-10-14.5-27.5-8.2
		c-14.5,5.2-46.8,84.3-53.7,121.5c-1.1,5.7-3.4,53.3-0.2,65c0,0.1,0,0.2,0.1,0.3l91.6-10.6C336.2,267.5,333.9,252.8,333.6,248.4z"/>
	<path class="st5" d="M302.1,119.9c0,0,27.1-2.4,27.1,19.3s-4.5,77.2,10.6,82.4c0,0,64-21.7,65.4-23.1c1.4-1.4,11.2-19.7,15.1-23.5
		c3.9-3.9,5.5-11.2,7.8-8.9c2.2,2.2-1.6,10.6-1.6,10.6s12.2-6.6,15.1-9.4c0,0,0.8-0.3,2.2,1.1c1.4,1.4-0.3,4.7-0.3,4.7
		s2.4,1.2,2.7,3.2c0.3,2-2.5,5.1-2.5,5.1s0.4,1.2,0.4,3.9s-25.1,18-25.1,18s-47.8,45.9-67.1,51.8c-19.3,5.9-61.2-15.3-72.7-59.3
		C267.5,151.6,288.2,121,302.1,119.9z"/>
	<path class="st5" d="M337.1,86.9c0,0-19.1,17-23.9,25c-3,5,13.8,14.2,23.1,18.2l18.3-31.6L337.1,86.9z"/>
	<path class="st8" d="M337.1,86.9c0,0-3.5,3.1-7.9,7.3c4.5,4.2,7,12.5,12,20c0.7,1.1,1.6,2.1,2.6,2.8l10.8-18.6L337.1,86.9z"/>
	<path class="st3" d="M335.9,21.4c-2.2,6.1-2.8,14.4,1.4,19.8l-0.3,0.3c-5.6-4.9-6.7-14.1-5.7-21.4L335.9,21.4z"/>
	<path class="st3" d="M322,32.8c4.2,3.3,13.3,9.7,18.5,8.7l0.1,0.5c-5.4,1.5-15.5-4.2-20.1-7.3L322,32.8z"/>
	<path class="st5" d="M368.3,40.8c0,0,11.6,6.6,11.6,19.8s-5.8,33.1-5.8,33.1l-5-1.3c0,0,1,3.5-0.8,5.3c0,0,0.6,1.1,0,1.7
		s-4.1,1.9-6,5.4c-2,3.5-14.2,6-19.6-1.4s-5.6-13.4-11.4-16.2C325.6,84.4,329.5,28.7,368.3,40.8z"/>
	<path class="st3" d="M355.6,48.5c0,0,16.9,15.1,25.9,15.1c8.9,0,25-11,21.2-24.5c-1.1-3.7-6.4-14.1-6.4-14.1s-4.9,17.2-23.3,12.5
		c0,0-3.8-3.7-5.6-4.7c-1.6-0.9-8.8-3.5-8.8-3.5s-6.8-6.1-15.1-1.9c-8.2,4.2-6.4,14.1-6.4,14.1s-17.8-1.4-20.9,8.9
		c-3.1,10.4,0,20.9,0,29S329.5,94,329.5,94l7.6-7.1c0,0-2.3-9.4,1.2-17.4s6.8-1.6,6.8-1.6L355.6,48.5z"/>
	<path class="st5" d="M343.4,68c0,0-0.6-8.7-9.3-9.3c-8.7-0.6-10.8,10.8-6.6,15c4.2,4.2,10.4,3.3,12.9,0.8C343,72,343.4,68,343.4,68
		z"/>
	<path class="st8" d="M340.6,68.9c0,0,0.5-5.8-5.3-5.1c-5.8,0.7-5.1,7.8-0.9,8.6C338.7,73.2,340.6,68.9,340.6,68.9z"/>
	<path class="st7" d="M369.1,92.4c-1.3-0.3-2.1-1-2-2.6c0.1-2.2,1-1.3,0.9-1C367.4,90.6,367.3,91.7,369.1,92.4z"/>
	<path class="st2" d="M338.5,78.8h2.2v-9l0,0c0-1.6-1.3-2.8-2.9-2.8s-2.9,1.3-2.9,2.9s1.3,2.9,2.9,2.9"/>
	<path class="st7" d="M372.4,76.5c-0.7,1.3-2,1.9-2.9,1.4s-1-1.9-0.3-3.2c0.7-1.3,2-1.9,2.9-1.4S373.1,75.2,372.4,76.5z"/>
	<g>
		<path class="st7" d="M364.3,68.9c3.5-3,9.3-6.3,11.6-2.2c0.4,0.8-0.7,1.4-1.2,0.7c-1.8-3.1-7.2,0.4-9.6,2.6
			C364.6,70.5,363.7,69.5,364.3,68.9z"/>
	</g>
	<path class="st3" d="M334.9,143.1c-2.7,28.9-26.5,73.5-63.4,95.7c-7.8,4.7-16.1,8.6-24.7,11.5c0.1-2.9,0.3-5.6,0.4-8
		c63.2-21.5,86.5-90,83.8-106.9c-1.3-9.3-11.3-15.4-21-15.5c-19.2-0.2-31.4,23.6-39,41.6l0,0l-1.2-0.5c4-10.2,9.1-21.7,15.9-30.3
		l0,0c2.7-3.5,5.7-6.5,9-8.9c15.9-11.5,37.7-2.1,40.1,12.9C335.3,137.7,335.1,140.4,334.9,143.1z"/>
	<path class="st5" d="M339.8,221.6c-15.1-5.2-10.6-60.7-10.6-82.4s-27.1-19.3-27.1-19.3c-13.9,1.2-34.6,31.8-23.1,75.8
		s53.4,65.2,72.7,59.3c12.4-3.8,36.4-24,52.1-38c-2.6-5.2-5.3-10.1-8.5-14.7C377.1,208.9,339.8,221.6,339.8,221.6z"/>
</g>
<line class="st9" x1="103.8" y1="148.1" x2="219.2" y2="148.1"/>
<line class="st9" x1="51.5" y1="180.9" x2="166.9" y2="180.9"/>
<line class="st9" x1="120.1" y1="208.6" x2="195.6" y2="208.6"/>
<line class="st9" x1="187.3" y1="425.8" x2="227.6" y2="425.8"/>
<line class="st9" x1="167.1" y1="406.6" x2="207.4" y2="406.6"/>
<path class="st10" d="M367.3,97.3c0,0-3.1-1.3-3.4-2.4"/>
</svg>
