<?xml version="1.0" encoding="utf-8"?>
<!-- Generator: Adobe Illustrator 24.1.0, SVG Export Plug-In . SVG Version: 6.00 Build 0)  -->
<svg version="1.1" id="Layer_1" xmlns="http://www.w3.org/2000/svg" xmlns:xlink="http://www.w3.org/1999/xlink" x="0px" y="0px"
	 viewBox="0 0 627 625" style="enable-background:new 0 0 627 625;" xml:space="preserve">
<style type="text/css">
	.st0{clip-path:url(#SVGID_2_);}
	.st1{fill:#FFFDBB;stroke:#1C1C1C;stroke-width:2;stroke-linejoin:round;stroke-miterlimit:10;}
	.st2{fill:none;stroke:#1C1C1C;stroke-width:2;stroke-linecap:round;stroke-linejoin:round;stroke-miterlimit:10;}
	.st3{fill:#161616;}
	.st4{fill:#FFFFFF;stroke:#161616;stroke-width:2;stroke-miterlimit:10;}
	.st5{fill:#FDBABA;stroke:#1C1C1C;stroke-width:2;stroke-miterlimit:10;}
	.st6{fill:#FFFFFF;stroke:#161616;stroke-width:2;stroke-linecap:round;stroke-miterlimit:10;}
	.st7{fill:#FFFFFF;}
	.st8{fill:none;stroke:#161616;stroke-width:2;stroke-linecap:round;stroke-miterlimit:10;}
	.st9{fill:#C7E6FF;stroke:#1C1C1C;stroke-width:2;stroke-miterlimit:10;}
</style>
<g>
	<defs>
		<rect id="SVGID_1_" x="43.4" y="37.2" width="131.3" height="155.3"/>
	</defs>
	<clipPath id="SVGID_2_">
		<use xlink:href="#SVGID_1_"  style="overflow:visible;"/>
	</clipPath>
	<g class="st0">
		<path class="st1" d="M88.6,56.9c0,14.6-11.9,26.6-26.6,26.6S35.3,71.7,35.3,56.9S47.2,30.3,62,30.3S88.6,42.2,88.6,56.9z"/>
		<line class="st2" x1="62.1" y1="92.7" x2="62.1" y2="102.5"/>
		<line class="st2" x1="79.9" y1="87.9" x2="84.8" y2="96.4"/>
		<line class="st2" x1="93.1" y1="74.7" x2="101.6" y2="79.6"/>
		<line class="st2" x1="97.8" y1="56.9" x2="107.7" y2="56.9"/>
		<line class="st2" x1="93.1" y1="39" x2="101.6" y2="34.1"/>
		<line class="st2" x1="79.9" y1="25.8" x2="84.8" y2="17.3"/>
		<line class="st2" x1="62.1" y1="21.1" x2="62.1" y2="11.2"/>
		<line class="st2" x1="44.2" y1="25.8" x2="39.3" y2="17.3"/>
		<line class="st2" x1="31" y1="39" x2="22.5" y2="34.1"/>
		<line class="st2" x1="26.2" y1="56.9" x2="16.4" y2="56.9"/>
		<line class="st2" x1="31" y1="74.7" x2="22.5" y2="79.6"/>
		<line class="st2" x1="44.2" y1="87.9" x2="39.3" y2="96.4"/>
	</g>
</g>
<g>
	<g>
		<g>
			<g>
				<path class="st3" d="M152.8,312.3c-3.4,0-6.2,2.8-6.2,6.2v50H38.1v-50c0-3.4-2.8-6.2-6.2-6.2c-3.4,0-6.2,2.8-6.2,6.2v230.9
					c0,10.6,8.6,19.2,19.2,19.2h94.8c10.6,0,19.2-8.6,19.2-19.2V318.5C159,315.1,156.2,312.3,152.8,312.3z M139.7,556.3H44.9
					c-3.8,0-6.9-3.1-6.9-6.9V380.8h108.6v168.6C146.6,553.2,143.5,556.3,139.7,556.3z"/>
				<g>
					<g>
						<path class="st4" d="M174.7,570.9c-2.3,0-4.1-1.8-4.1-4.1V407.6c0-19.2,15.6-34.8,34.8-34.8c15.7,0,29.5,10.6,33.6,25.8
							l39.8,148c0.6,2.2-0.7,4.5-2.9,5c-2.2,0.6-4.5-0.7-5-2.9l-39.8-148c-3.1-11.6-13.7-19.7-25.7-19.7
							c-14.7,0-26.6,11.9-26.6,26.6v159.1C178.8,569,177,570.9,174.7,570.9z"/>
						<g>
							<path class="st4" d="M414.3,257.1c-4.1,31.7-15.6,62.6-33.8,89c-22.5,32.5-56.8,59.2-96.3,66.2c-21.1,3.8-43,1.1-63.2-6
								c-10.1-3.6-19.9-8.3-29-14c-7.1-4.4-20.6-11.3-16.6-21.7c0.3-0.9,0.8-1.7,1.3-2.5c4.5-6.7,14.6-9.6,21.2-14
								c6.1-4.1,15-10.1,16.3-18c6.7-43.3,4.7-116.1,4.7-116.1s-15.2-82.1,18.8-93.1c34-11,59.6,26.7,80.9,26.7
								c13.8,0,23.9-8,35.7-13.5c6.4-3,13.2-5.3,21.4-5.3C399.2,134.7,428.5,148.8,414.3,257.1z"/>
							<path class="st4" d="M333.5,185.8c6.4,27.5,28.2,120-17.3,175.1l-50.5-2.5c0,0-26.1-11.3-51.5-22.4
								c6.6-43.3,4.7-116.1,4.7-116.1s-15.2-82.1,18.8-93.1c34-11,59.6,26.7,80.9,26.7c13.8,0,23.9-8,35.7-13.5l0,0
								C354.3,140,327.1,158.3,333.5,185.8z"/>
						</g>
						<path class="st4" d="M291.6,570.9c-2.3,0-4.1-1.8-4.1-4.1V407.6c0-19.2,15.6-34.8,34.8-34.8c15.7,0,29.5,10.6,33.6,25.8
							l39.8,148c0.6,2.2-0.7,4.5-2.9,5c-2.2,0.6-4.5-0.7-5-2.9l-39.8-148c-3.1-11.6-13.7-19.7-25.7-19.7
							c-14.7,0-26.6,11.9-26.6,26.6v159.1C295.7,569,293.9,570.9,291.6,570.9z"/>
					</g>
					<g>
						<g>
							<g>
								<g>
									<path class="st4" d="M178.8,374.6l-18.9,7.5c0,0,8.5,71.5,30.9,116.9c0,0,6,10.1,5.9,18.1c-0.2,8-56.6,26.9-59.5,21.5
										c-2.9-5.4,30.9-33.2,30.9-33.2c1.1-1-16.7-25.9-20.2-33.7c-12.8-28.1-22.9-58.2-28.4-88.3c-1.1-5.8-2-11.8-1.9-17.7
										c0.2-6.2,2.5-9.5,7.4-12.6c4.3-2.8,9.1-4.9,13.8-7c8.6-3.7,17.3-6.9,26.2-9.8c0.7-0.2,1.4-0.5,2.1-0.7L178.8,374.6z"/>
									<path class="st3" d="M150.1,340.5c0,0,50.9-33,119.2-27.4l-7.8,50.8c0,0-58.4,12.5-91.6,16.4
										C169.9,380.3,162.5,348.8,150.1,340.5z"/>
								</g>
								<path class="st5" d="M147.6,519.8c0,0,10-7.7,19.5,9.9c1.1,1.3,29.7-16.5,30.9-15.9c2.7,1.4-2.4,11.3-29.5,21.7
									c-27.1,10.3-32.8,10.1-35,6C130.2,535.5,147.6,519.8,147.6,519.8z"/>
							</g>
							<g>
								<g>
									<path class="st4" d="M250.7,384.6l-18.3,9c0,0,14.4,70.5,40.5,114c0,0,6.9,9.6,7.3,17.5c0.5,8-54.2,31.5-57.5,26.3
										c-3.4-5.2,28.3-36.3,28.3-36.3c-9.5-13.1-23-26.6-34.1-49.2c-10.6-21.5-18.5-44.5-24.7-67.7c-1.5-5.7-3-11.6-3.3-17.5
										c-0.3-6.2,1.7-9.6,6.4-13.2c4.1-3.1,8.6-5.7,13.2-8.1c8.2-4.4,16.7-8.3,25.3-11.9c0.7-0.3,1.3-0.6,2-0.8L250.7,384.6z"/>
									<path class="st3" d="M322.4,315.6c0,0,8.4,29-4.1,43.3c-12.4,14.3-74.1,32.3-74.1,32.3s-0.5-28.2-27.5-40.3
										c0,0,37.4-26.5,54.1-31.3L322.4,315.6z"/>
								</g>
								<path class="st5" d="M232.3,531.4c0,0,9.5-8.4,20.2,8.5c1.2,1.3,28.4-18.6,29.7-18c2.8,1.2-1.6,11.5-27.9,23.7
									c-26.3,12.2-32,12.4-34.5,8.5C216.1,548.3,232.3,531.4,232.3,531.4z"/>
							</g>
						</g>
						<g>
							<path class="st3" d="M241.7,122.1c0,0-16.3-35.7-0.2-34.5c0,0,24.3-43.8,70.7-12.5c37.2,25.1-13.3,57.7-13.3,57.7
								L241.7,122.1z"/>
							<g>
								<g>
									<path class="st4" d="M248.4,178.4c2.1-13.5,3.3-26.7,1.3-40.2c-1.1-7.5-2.4-15.1-3.7-22.6c-1.3-7.4-2.7-15-6.4-21.6
										c24.9-12.8,47.6-11.9,67.7,4.9c1.4,7.9,2.8,15.9,2.7,23.9c-0.2,8-2,16.2-6.7,22.8c-4.8,6.8-12.1,11.3-19.8,14.5
										c-2.7,1.1-5.6,2.2-7.6,4.3c-1.8,1.9-2.7,4.5-3,7.1c-0.3,2.6,0.2,4.1,1.2,5.7c0,0,25.3,15.5,25.3,43.6
										c0,28.1-76.6,31.5-76.6,4.6C222.8,198.4,248.4,178.4,248.4,178.4z"/>
									<g>
										<g>
											<path class="st3" d="M294.6,114.9c0,2,1.2,3.6,2.6,3.6c1.4,0,2.6-1.6,2.6-3.6s-1.2-3.6-2.6-3.6
												C295.8,111.3,294.6,112.9,294.6,114.9z"/>
										</g>
										<g>
											<path class="st3" d="M276.2,114.9c0,2,1.2,3.6,2.6,3.6c1.4,0,2.6-1.6,2.6-3.6s-1.2-3.6-2.6-3.6
												C277.3,111.3,276.2,112.9,276.2,114.9z"/>
										</g>
										<path class="st3" d="M283.7,108.4c-0.8-0.7-1.6-1.1-2.5-1.4c-0.9-0.3-1.9-0.5-2.8-0.4c-1,0-1.9,0.2-2.8,0.6
											c-0.9,0.4-1.6,0.9-2.3,1.4c-0.4,0.3-0.4,0.8-0.1,1.2c0.3,0.3,0.8,0.4,1.1,0.2l0.1,0c0.6-0.4,1.3-0.8,2-1
											c0.7-0.3,1.4-0.3,2.1-0.3c0.7,0,1.4,0.2,2,0.5c0.6,0.3,1.3,0.7,1.7,1.1l0.1,0.1c0.5,0.5,1.2,0.4,1.7,0
											C284.3,109.7,284.2,109,283.7,108.4C283.7,108.5,283.7,108.5,283.7,108.4z"/>
										<path class="st3" d="M295.1,110.1c0.3-0.4,0.9-0.8,1.5-1.1c0.6-0.3,1.2-0.4,1.8-0.5c0.6,0,1.2,0.1,1.8,0.3
											c0.6,0.2,1.2,0.6,1.7,1l0.1,0c0.4,0.3,0.9,0.2,1.2-0.2c0.3-0.3,0.2-0.8-0.1-1.1c-0.6-0.5-1.3-1.1-2.1-1.4
											c-0.8-0.4-1.7-0.6-2.6-0.7c-0.9,0-1.8,0.1-2.7,0.5c-0.8,0.4-1.6,0.8-2.3,1.4c-0.5,0.4-0.5,1.2-0.1,1.7
											c0.4,0.5,1.2,0.5,1.7,0.1C295,110.2,295,110.2,295.1,110.1L295.1,110.1z"/>
										<path class="st3" d="M287.9,121.2c0.7-0.3,1.5-0.5,2.2-0.3c0.7,0.2,1.2,0.9,1.3,1.6c0.1,0.8-0.1,1.5-0.5,2.1
											c-0.4,0.6-1,1.1-1.7,1.6c-0.3,0.2-0.7,0-0.9-0.2c-0.2-0.3-0.1-0.7,0.2-0.9c0.1,0,0.2-0.1,0.3-0.2c0.1-0.1,0.2-0.2,0.3-0.3
											c0.1-0.1,0.2-0.2,0.3-0.3c0-0.1,0.1-0.1,0.1-0.2c0,0,0.1-0.1,0.1-0.1c0.1-0.2,0.3-0.5,0.4-0.6c0-0.1,0-0.1,0.1-0.2
											c0,0,0-0.1,0-0.1c0-0.1,0-0.1,0-0.2c0,0,0-0.1,0-0.2c0,0,0-0.1,0-0.1c0-0.1,0-0.1,0-0.2c0,0,0-0.1,0-0.1
											c0,0-0.1-0.2-0.1-0.1c0,0-0.1-0.1-0.1-0.1c0,0,0,0-0.1-0.1c0,0-0.1-0.1-0.1-0.1c0,0,0,0,0,0c0,0-0.1,0-0.1,0
											c0,0-0.1,0-0.1,0c0,0,0,0,0,0c-0.1,0-0.1,0-0.2,0c-0.1,0-0.1,0-0.3,0c-0.3,0.1-0.6,0.2-0.8,0.3c-0.3,0.1-0.7-0.1-0.8-0.4
											C287.4,121.7,287.6,121.4,287.9,121.2z"/>
									</g>
								</g>
								<g>
									<path class="st3" d="M248,125.4c0,0,7.9-10.6,6.7-27c0,0,2.2,3.8,4.3,2.3c2.1-1.5,0-5.4,0-5.4s29.6,12.9,50.9,5.9l-1-4.6
										c0,0-11.7-13.2-36.5-13.2s-36.3,9.1-36.3,9.1l9.2,29.9L248,125.4z"/>
									<path class="st3" d="M245.2,120.3c0,0,1.3,14.3,3.6,15.2c2.3,1,0.6-17,0.6-17L245.2,120.3z"/>
								</g>
								<g>
									<path class="st4" d="M242.2,120.2c-1.1,1.9,0.1,4.7,2.8,6.3c2.7,1.5,5.7,1.2,6.8-0.7c1.1-1.9-0.1-4.7-2.8-6.3
										C246.3,118,243.3,118.3,242.2,120.2z"/>
								</g>
							</g>
						</g>
						<g>
							<g>
								<path class="st4" d="M193.5,242.9l-19.8,31.4l-80.2,8l-1.2,18.5c0,0,79.8,4.4,95.3-3.1c15.6-7.5,29.2-42.2,29.2-42.2
									L193.5,242.9z"/>
								<path class="st4" d="M220,195.6c0,0-24.4,32.6-32.4,47.3l30.4,19.2l15.5-35.2L220,195.6z"/>
							</g>
							<path class="st4" d="M248.4,178.4c0,0,7,16,25.7-1.3c0,0,29.6,10,34.8,16.2c5.2,6.1,16.7,124.8,16.7,124.8
								s-30.8,7.8-59.6,7.8c-28.8,0-55.5-8.8-55.5-8.8S213,202,220,195.6C227,189.2,248.4,178.4,248.4,178.4z"/>
							<g>
								<g>
									<path class="st4" d="M337.3,241.6l19.8,31.4l67.9,8l1.2,18.5c0,0-67.4,4.4-83-3.1c-15.6-7.5-29.2-42.2-29.2-42.2
										L337.3,241.6z"/>
									<path class="st4" d="M448.4,282c0,0,16.4,1.9,16.2-1.4c-0.2-3.4-16.8-5-19.8-4.9c-0.9,0-2.9,0.5-5.3,1.1
										c2.4-2.5,4.2-5,2-5.6c-4.5-1.2-16.6,9.9-16.6,9.9l1.2,18.5c10.2,6.8,23.4-1.6,23.4-1.6s10.8,11.1,12.8,9.4
										c2-1.7-11.3-14.3-11.3-14.3s14.5,9.5,14.9,6.6c0.4-2.9-14-11.7-14-11.7s16.5,5.7,16.3,3.5C468.1,289.1,448.4,282,448.4,282
										z"/>
								</g>
								<path class="st4" d="M308.9,193.3c0,0,21.4,26,32.3,49.6l-26.1,17.8l-21.5-36.8L308.9,193.3z"/>
							</g>
						</g>
					</g>
					<path class="st6" d="M275.6,130.9c0,3.4,5.2,6.1,11.6,6.1"/>
				</g>
				<path class="st4" d="M365.5,312.5"/>
				<g>
					<g>
						<g>
							<path class="st3" d="M204.6,311.1h-98.7c-1.7,0-3.1-1.4-3.1-3.1l0,0c0-1.7,1.4-3.1,3.1-3.1h98.7c1.7,0,3.1,1.4,3.1,3.1l0,0
								C207.7,309.7,206.3,311.1,204.6,311.1z"/>
							<g>
								<polygon class="st3" points="152.8,311.1 43.9,311.1 27.3,239.8 136.2,239.8 								"/>
								<path class="st7" d="M98.5,277.8c1,4.7-1.9,8.5-6.6,8.5c-4.7,0-9.3-3.8-10.3-8.5s1.9-8.5,6.6-8.5
									C92.9,269.4,97.5,273.2,98.5,277.8z"/>
							</g>
						</g>
						<g>
							<g>
								<path class="st3" d="M439,244h-25.2l11.5,61.6l-30.1,5.6h31.1h4.5h20.6L439,244z M438.9,305c-2.6,0-5.4-3.6-6.3-8
									c-0.9-4.4,0.5-8,3.1-8c2.6,0,5.4,3.6,6.3,8C442.9,301.4,441.5,305,438.9,305z"/>
								<g>
									<g>
										<path class="st3" d="M515.8,268c-61.4,10.5-122.9,10.5-184.3,0c-1.5-0.3-2.5-1.5-2.5-3v-96.6c0-1.8,1.6-3.2,3.4-3
											c60.9,7.4,121.7,7.4,182.6,0c1.8-0.2,3.4,1.2,3.4,3V265C518.4,266.5,517.3,267.8,515.8,268z"/>
									</g>
									<path class="st7" d="M437.3,223.9c0,6.4-4.1,11.6-9.2,11.6c-5.1,0-9.2-5.2-9.2-11.6c0-6.4,4.1-11.6,9.2-11.6
										C433.2,212.4,437.3,217.5,437.3,223.9z"/>
								</g>
							</g>
							<path class="st3" d="M414.9,311.1h-98.7c-1.7,0-3.1-1.4-3.1-3.1l0,0c0-1.7,1.4-3.1,3.1-3.1h98.7c1.7,0,3.1,1.4,3.1,3.1l0,0
								C418,309.7,416.6,311.1,414.9,311.1z"/>
						</g>
					</g>
					<g>
						<path class="st3" d="M507.1,312.3c-3.4,0-6.2,2.8-6.2,6.2v50H392.3v-50c0-3.4-2.8-6.2-6.2-6.2s-6.2,2.8-6.2,6.2v228.3
							c0,12.1,9.8,21.9,21.9,21.9h89.4c12.1,0,21.9-9.8,21.9-21.9V318.5C513.2,315.1,510.5,312.3,507.1,312.3z M491.3,556.3h-89.4
							c-5.3,0-9.6-4.3-9.6-9.6V380.8h108.6v165.9C500.9,552,496.6,556.3,491.3,556.3z"/>
						<g>
							<rect x="11.7" y="311.1" class="st3" width="515.5" height="14.7"/>
							<rect x="383.2" y="311.1" class="st3" width="144" height="14.7"/>
						</g>
					</g>
				</g>
			</g>
			<g>
				<g>
					<g>
						<path class="st4" d="M587.1,576.1c1,1.1,1.9,2.3,2.4,3.7c0.5,1.4,0.6,3-0.1,4.3c-0.7,1.3-2.2,2.2-2.1,3.7
							c0.1,1.2,1.3,2,2.5,2.1c1.2,0.1,2.3-0.4,3.4-0.9c3.8-1.7,7.9-3.5,10.2-7c2.8-4.3,2.2-10.1,0.3-14.9c-1.9-4.8-4.9-9.1-6.9-13.9
							c-2-4.8-2.8-10-2.4-15.1c0.5-6.5,2.6-12.7,2.5-19.2c-0.1-6.3-2.3-12.3-8.9-14c-3.4-0.9-7,0.2-10.1,1.9
							c-6.1,3.4-10.7,9.1-14,15.2c-3.1,5.9-5.3,12.4-5.1,19.1c0.2,7.2,2.8,13.9,9.2,17.6c4.1,2.4,7.7,5.4,11.1,8.7
							C581.9,570.3,584.6,573.1,587.1,576.1z"/>
						<path class="st6" d="M558.3,580.8c0.4,1.4,0.8,2.9,0.7,4.4c-0.1,1.5-0.7,3-1.9,3.9c-1.2,0.8-2.9,1.1-3.4,2.5
							c-0.4,1.1,0.4,2.4,1.4,3c1.1,0.6,2.3,0.6,3.5,0.6c4.2,0.1,8.6,0.1,12.1-2.2c4.4-2.8,6.2-8.3,6.4-13.4
							c0.2-5.2-0.8-10.3-0.6-15.5c0.2-5.1,1.5-10.2,4-14.8c2-3.7,4.6-6.9,6.9-10.4c2.3-3.5,4.3-7.2,4.8-11.3c0.5-4.1-0.7-8.6-4-11.2
							c-2.7-2.2-6.5-2.7-10-2.4c-7,0.5-13.5,3.9-19,8.2c-5.3,4.1-9.9,9.2-12.4,15.4c-2.8,6.6-3.1,13.8,1.2,19.9
							c2.7,3.9,4.8,8.1,6.6,12.5C556,573.4,557.3,577,558.3,580.8z"/>
					</g>
					<g>
						<path class="st4" d="M491.2,530.7c8.1,12.1,13,28,14,44.9c0.2,3.1,0.2,6.3,1.3,9c1,2.7,3.4,4.6,5.6,3.4c2.3-1.2,3.3-4.9,4-8.1
							c2.6-12.3,5.3-24.5,7.9-36.8c1-4.7,2.3-10,5.4-12.7C517.9,521.2,503.7,520.8,491.2,530.7z"/>
						<path class="st6" d="M474.2,530.1c5.4,13.8,6.9,30.5,4.3,47.1c-0.5,3-1.1,6.2-0.6,9c0.5,2.8,2.4,5.3,4.8,4.7
							c2.5-0.6,4.2-3.9,5.6-6.8c5.1-11.2,10.2-22.4,15.4-33.6c2-4.3,4.3-9.1,7.9-10.9C502.3,527.7,488.5,523.6,474.2,530.1z"/>
					</g>
					<g>
						<path class="st6" d="M618.5,514.9c-9.8,3.2-16.4-9-21.1-15.3c-5.7-7.6-13.5-13-22.9-14.9c-4-0.8-5,5.4-1.1,6.2
							c4.5,0.9,8.7,2.8,12.3,5.6c4.2,3.2,7.1,7.6,10.2,11.9c5.7,8,14.2,15.9,24.9,12.4C624.6,519.5,622.3,513.6,618.5,514.9z"/>
						<g>
							<path class="st6" d="M510.8,541.8c-7.8-0.8-15.5-2.2-22.5-4.9c-14.9-5.9-20.8-20.2-19.3-34.8c0.5-4.8,1.6-10,5.4-13.5
								c3.8-3.4,9.2-4.2,14.3-4.8c19.8-2.3,39.7-4.1,59.5-3.5c14,0.4,29.2,2.5,38.1,12.2c5.1,5.6,8.3,13.7,9.4,21
								c0.7,4.5,0.7,9.2-0.1,13.7c-1.1,6.1-2.7,12.9-9.2,15.5c-8.2,3.4-17,2.1-25.7,1.9c-9-0.2-18-0.6-26.9-1.2
								C526.5,542.8,518.6,542.6,510.8,541.8z"/>
							<g>
								<path class="st3" d="M542.2,480.1c-1.6,4.5,1.1,10.7,7.3,10.1c5.4-0.5,7.2-5.6,6-9.6c-2.5-0.2-4.9-0.3-7.3-0.4
									C546.2,480.1,544.2,480.1,542.2,480.1z"/>
								<path class="st3" d="M562,489.1c-6.7,0.7-5.7,11.1,1,10.4C569.8,498.9,568.8,488.4,562,489.1z"/>
								<path class="st3" d="M547,495.3c-6.7,0.7-5.7,11.1,1,10.4C554.7,505,553.7,494.6,547,495.3z"/>
								<path class="st3" d="M530.5,480.3c-7.4,0.2-14.9,0.7-22.4,1.4c-8.9,9.7-3.3,30.1,13.6,28.4
									C538.2,508.5,540.1,488.6,530.5,480.3z"/>
								<path class="st3" d="M494.1,503.4c9.4-0.9,8-15.5-1.4-14.6C483.3,489.7,484.7,504.3,494.1,503.4z"/>
							</g>
						</g>
					</g>
				</g>
				<g>
					<path class="st4" d="M438.8,519.9c-0.8,3.8-1.1,8.1,1,11.4c1.6,2.6,4.5,4.2,7.2,5.7c2.4,1.3,4.8,2.6,7.5,3.1
						c2.6,0.5,5.6,0.2,7.7-1.5c2.4-2,3.2-5.2,3.6-8.2c1.8-11.9,0.6-24.1-3.3-35.5c-0.8-2.4-2.8-8.7-6.3-7.4c-3,1.1-6.2,7-7.8,9.5
						C443.7,503.8,440.4,511.7,438.8,519.9z"/>
					<g>
						<path class="st6" d="M412.9,507.9c2.2-1.2,4.8-1.8,7.2-2.7c5.3-2,9.7-5.8,13.7-9.7c4-4,7.8-8.2,12.2-11.7
							c4.5-3.4,9.9-5.9,15.6-5.8c8.1,0.3,14.9,5.9,21,11.2c2.7,2.4,0.8,6.9,2,10.3c1.1,3.2,5.3,4.8,3.8,7.9c-1.4,3.1-3.7,5.7-6.2,8
							c-12.6,11.8-30.7,17.1-47.8,15.1c-5.4-0.6-10.9-1.9-15.6-4.7c-3.7-2.1-7-5.2-9.1-9c-1-1.7-1.4-2.8-0.7-4.7
							C409.8,510.3,411.2,508.9,412.9,507.9z"/>
						<g>
							<path class="st3" d="M444.1,497.2c-4,0.4-3.4,6.6,0.6,6.3C448.8,503,448.2,496.8,444.1,497.2z"/>
							<path class="st3" d="M451.5,493.7c-3.2-2-7.4-1.9-10.6-0.1c-0.5,0.3-0.5,1-0.2,1.5c0.4,0.5,1,0.5,1.5,0.2
								c2.6-1.5,6-1.3,8.5,0.3c0.5,0.3,1.2,0,1.4-0.5C452.2,494.5,452,494,451.5,493.7z"/>
						</g>
						<path class="st4" d="M427.9,519.3c-0.4-0.1-0.8,0.2-0.9,0.7c-0.1,0.4,0.2,0.8,0.7,0.9c0.3,0.1,0.6,0.5,0.6,0.9
							c0,0.4-0.3,0.9-0.7,1.2c-0.4,0.3-1,0.5-1.7,0.5c-2.5,0.2-4.9-1.1-7.1-2.6c-2.8-1.8-5.8-4-7.2-7.1c-0.2-0.4-0.7-0.6-1-0.4
							c-0.4,0.2-0.6,0.7-0.4,1c1.6,3.5,4.9,5.9,7.8,7.8c1.5,1,3.2,1.9,4.9,2.4c0.1,0.4,0.1,0.7,0,0.9c-0.1,0.3-0.3,0.5-0.5,0.5
							c-0.4,0-0.8,0.4-0.8,0.8c0,0.4,0.4,0.8,0.8,0.8c0,0,0.1,0,0.1,0c0.8-0.1,1.6-0.7,1.8-1.6c0.1-0.4,0.1-0.7,0.1-1
							c0.5,0.1,1,0.1,1.5,0.1c0.1,0,0.2,0,0.3,0c0.9-0.1,1.7-0.3,2.3-0.8c0.9-0.6,1.4-1.6,1.4-2.5
							C429.9,520.6,429,519.5,427.9,519.3z"/>
						<path class="st3" d="M408.6,514c-1.1-0.3-2.2-0.9-2.7-2c-0.5-1-0.3-2.5,0.6-3.1c0.4-0.3,0.9-0.4,1.3-0.6
							c2.7-0.7,5.3-1.5,8-2.2c1.2-0.3,2.6-0.6,3.5,0.3c0.6,0.6,0.6,1.6,0.2,2.4c-0.4,0.8-1,1.4-1.6,2c-1.3,1.2-2.7,2.5-4.4,3.2
							C412.1,514.6,410,514.3,408.6,514z"/>
					</g>
					<path class="st4" d="M460.2,524.5c0.8,3.8,2.2,7.9,5.4,10.1c2.6,1.8,5.8,2.1,8.9,2.3c2.7,0.2,5.4,0.4,8.1-0.2
						c2.6-0.6,5.2-2.1,6.4-4.5c1.4-2.7,0.8-6,0-9c-3.1-11.6-9-22.4-17.2-31.2c-1.7-1.9-6-6.9-8.8-4.3c-2.3,2.2-2.9,8.9-3.4,11.8
						C458.2,507.8,458.4,516.3,460.2,524.5z"/>
				</g>
				<path class="st5" d="M477.1,484.7l-1.9,11.2c2,2.5,3.8,5.1,5.5,7.8l4.4-19.4L477.1,484.7z"/>
			</g>
		</g>
	</g>
</g>
<rect x="43.4" y="37.2" class="st8" width="131.3" height="155.3"/>
<rect x="152.8" y="85.3" class="st9" width="21.9" height="107.3"/>
<rect x="137" y="120.9" class="st9" width="15.8" height="71.7"/>
</svg>
